<?xml version="1.0" encoding="UTF-8" standalone="no"?>
<!-- Created with Inkscape (http://www.inkscape.org/) -->

<svg
   version="1.1"
   id="svg1"
   width="508"
   height="472"
   viewBox="0 0 508 472"
   sodipodi:docname="logo2.svg"
   inkscape:version="1.3.2 (091e20e, 2023-11-25, custom)"
   xmlns:inkscape="http://www.inkscape.org/namespaces/inkscape"
   xmlns:sodipodi="http://sodipodi.sourceforge.net/DTD/sodipodi-0.dtd"
   xmlns="http://www.w3.org/2000/svg"
   xmlns:svg="http://www.w3.org/2000/svg">
  <defs
     id="defs1" />
  <sodipodi:namedview
     id="namedview1"
     pagecolor="#ffffff"
     bordercolor="#000000"
     borderopacity="0.25"
     inkscape:showpageshadow="2"
     inkscape:pageopacity="0.0"
     inkscape:pagecheckerboard="0"
     inkscape:deskcolor="#d1d1d1"
     showgrid="false"
     inkscape:zoom="1.7394068"
     inkscape:cx="238.29963"
     inkscape:cy="287.16687"
     inkscape:window-width="1920"
     inkscape:window-height="1017"
     inkscape:window-x="-8"
     inkscape:window-y="-8"
     inkscape:window-maximized="1"
     inkscape:current-layer="g1"
     inkscape:export-bgcolor="#ffffff00" />
  <g
     inkscape:groupmode="layer"
     inkscape:label="Image"
     id="g1">
    <g
       id="g2"
       transform="translate(-0.57490864,-1.1498173)"
       style="display:inline"
       sodipodi:insensitive="true">
      <path
         style="display:inline;fill:#b9b9b9;fill-opacity:1"
         d="m 272.66401,437.26406 c 71.03329,-10.10093 131.41757,-56.25649 158.90091,-121.45811 5.20417,-12.34642 8.67311,-23.87827 12.20738,-40.58123 3.13387,-14.81066 4.40198,-48.1269 2.4433,-64.19127 -6.22904,-51.08843 -24.84216,-88.77157 -61.18383,-123.869615 -29.19556,-28.19648 -66.7655,-47.026008 -107.88195,-54.06893 -12.43009,-2.129176 -39.46539,-2.876953 -52,-1.438282 C 146.52735,40.68058 82.621369,93.667395 56.616156,171.39412 c -1.94966,5.82731 -3.3377,11.09809 -3.08453,11.71285 0.25548,0.6204 0.51357,0.45032 0.58001,-0.38225 0.0658,-0.825 1.47871,-4.2 3.1397,-7.5 1.66098,-3.3 2.72288,-5.1 2.35976,-4 -5.25726,15.92614 -9.48015,41.58405 -9.43087,57.30122 0.0381,12.15606 1.46341,10.27015 2.41323,-3.19311 0.81902,-11.60918 2.79736,-25.37623 5.10386,-35.51711 2.38847,-10.50133 2.80056,-8.09698 0.51309,2.99361 -2.65547,12.87473 -4.08605,26.93743 -3.92936,38.62598 l 0.13122,9.78941 1.26228,-15.06001 c 1.67661,-20.00337 2.87904,-27.42663 6.98188,-43.1031 4.33266,-16.55459 7.86314,-25.44651 16.60891,-41.83145 24.929354,-46.704385 70.143014,-81.618057 121.575304,-93.879594 18.84608,-4.492935 24.74468,-5.139984 44.46793,-4.877925 15.25123,0.202639 21.00385,0.712761 31.5,2.793311 60.87229,12.066126 108.78196,49.186553 135.39168,104.901528 6.76907,14.17297 12.66239,33.16843 13.97894,45.05724 2.45746,22.1914 3.05745,32.20416 2.69652,45 -0.62134,22.02835 -3.0559,35.03837 -11.22776,60 -5.25687,16.05757 -21.46197,43.72805 -30.95196,52.851 -2.77539,2.66805 -4.42529,4.51791 -3.66644,4.1108 0.8708,-0.46716 1.23044,-0.29232 0.975,0.474 -0.2226,0.66781 -0.77088,1.13957 -1.2184,1.04836 -0.44751,-0.0912 -4.48626,3.37327 -8.975,7.69884 -4.48873,4.32558 -10.41133,9.80413 -13.16133,12.17457 l -5,4.30989 4.9633,-3.33373 c 2.72981,-1.83355 6.85414,-5.24825 9.16517,-7.58822 2.31103,-2.33997 4.37561,-3.73326 4.58797,-3.09619 0.21235,0.63706 4.83427,-3.07342 10.27092,-8.24551 8.32743,-7.92221 9.39782,-8.68821 6.79381,-4.86184 -9.86509,14.49595 -33.06388,35.34384 -50.53138,45.41069 -2.61262,1.5057 -4.50175,3.13966 -4.19807,3.63103 0.30369,0.49137 -0.0466,0.66363 -0.77848,0.38279 -0.73184,-0.28084 -2.21772,0.19914 -3.30193,1.06662 -1.90942,1.52772 -1.90067,1.543 0.27869,0.48688 1.2375,-0.59969 2.25,-0.87597 2.25,-0.61395 0,0.26202 -3.7125,2.51955 -8.25,5.01674 -11.34535,6.24384 -8.92344,5.73277 4.46637,-0.94249 43.63051,-21.75125 79.31495,-60.62046 93.93247,-102.31576 11.20121,-31.95052 13.69191,-44.11783 14.84568,-72.52237 0.48832,-12.02182 1.10786,-22.07787 1.37677,-22.34677 0.96732,-0.96732 -0.22552,41.37335 -1.37213,48.70462 -3.94105,25.19871 -13.21505,51.7619 -25.0125,71.64248 -2.89091,4.87163 -5.27055,9.40023 -5.28809,10.06353 -0.0176,0.66331 -0.4069,0.97425 -0.86524,0.69098 -0.45833,-0.28326 -0.88958,-0.0385 -0.95833,0.54399 -0.0688,0.58246 -0.18125,1.48965 -0.25,2.01597 -0.0688,0.52633 -1.025,1.6847 -2.125,2.57416 -1.1,0.88946 -1.33033,1.26604 -0.51184,0.83684 2.06823,-1.08454 -3.59488,6.46043 -12.76822,17.01113 -25.89536,29.78352 -62.80942,51.95878 -101.71994,61.10588 -15.24566,3.58396 -24.30767,4.71285 -44.5,5.54358 l -18.5,0.7611 21.5,-0.37219 c 11.825,-0.2047 23.525,-0.5828 26,-0.84023 3.20283,-0.33313 2.62631,-0.074 -2,0.89895 -3.575,0.75184 -10.87862,1.68462 -16.23027,2.07283 -5.35164,0.38821 -9.48758,1.0985 -9.19098,1.57842 0.8142,1.3174 13.66716,1.01427 24.93544,-0.58808 z m 8.23581,-5.20162 c 0.6875,-0.27741 1.8125,-0.27741 2.5,0 0.6875,0.27741 0.125,0.50439 -1.25,0.50439 -1.375,0 -1.9375,-0.22698 -1.25,-0.50439 z m 77.21922,-31.02038 c 1.90807,-1.54954 7.75807,-6.2555 13,-10.4577 9.12235,-7.31294 17.963,-15.98001 28.41759,-27.85964 4.02467,-4.57326 4.27384,-4.74176 1.47876,-1 -8.42926,11.28424 -30.63473,31.93556 -42.86557,39.86544 l -3.5,2.26923 z m 19.53078,-37.31734 c 2.14824,-2.2 4.1309,-4 4.4059,-4 0.275,0 -1.25766,1.8 -3.4059,4 -2.14824,2.2 -4.1309,4 -4.4059,4 -0.275,0 1.25766,-1.8 3.4059,-4 z m 8,-9 c 0.99549,-1.1 2.03498,-2 2.30998,-2 0.275,0 -0.31449,0.9 -1.30998,2 -0.99549,1.1 -2.03498,2 -2.30998,2 -0.275,0 0.31449,-0.9 1.30998,-2 z m 18.5,1.62244 c 0,-0.20765 0.7875,-0.99515 1.75,-1.75 1.58606,-1.24387 1.62143,-1.2085 0.37756,0.37756 -1.30637,1.66575 -2.12756,2.19548 -2.12756,1.37244 z m 3,-4 c 0,-0.20765 0.7875,-0.99515 1.75,-1.75 1.58606,-1.24387 1.62143,-1.2085 0.37756,0.37756 -1.30637,1.66575 -2.12756,2.19548 -2.12756,1.37244 z M 60.228766,180.14139 c 0.048,-1.16495 0.28494,-1.4019 0.60417,-0.60417 0.28887,0.72187 0.25334,1.58437 -0.0789,1.91667 -0.3323,0.33229 -0.56865,-0.25834 -0.52522,-1.3125 z m 2.00665,-6.41667 c -0.0302,-0.825 0.38125,-2.175 0.9144,-3 1.18132,-1.82797 1.18132,-0.24909 0,2.5 -0.56668,1.31874 -0.87815,1.48906 -0.9144,0.5 z M 223.89982,433.03539 c -0.9625,-0.25152 -2.5375,-0.25152 -3.5,0 -0.9625,0.25153 -0.175,0.45733 1.75,0.45733 1.925,0 2.7125,-0.2058 1.75,-0.45733 z m -6.48097,-0.96661 c -0.67703,-0.27392 -2.02703,-0.29059 -3,-0.0371 -0.97297,0.25354 -0.41903,0.47766 1.23097,0.49804 1.65,0.0204 2.44606,-0.18706 1.76903,-0.46099 z m 52.7572,-1.39017 c 9.67395,-1.19427 25.74381,-4.72626 27.97377,-6.14833 1.17785,-0.75113 1.09383,-0.82807 -0.39123,-0.35825 -1.04018,0.32907 -7.56518,1.77468 -14.5,3.21247 -9.50655,1.97097 -17.16045,2.78505 -31.10877,3.30878 l -18.5,0.69463 14.02623,0.1684 c 7.71443,0.0926 17.83943,-0.30234 22.5,-0.8777 z m -74.85038,-2.52119 c -27.93985,-8.25981 -56.44769,-23.80843 -78.13226,-42.61456 -18.242145,-15.82067 -36.356813,-39.16144 -48.029984,-61.8867 -2.85161,-5.5515 -5.40012,-9.87826 -5.66336,-9.61502 -0.61899,0.61898 5.23963,12.23483 11.61348,23.026 14.986325,25.37237 38.457054,49.89874 63.148214,65.98843 10.65751,6.94483 27.08653,15.62887 37.38806,19.76254 8.84796,3.5504 22.89213,7.75397 26,7.78207 1.1,0.01 -1.74587,-1.08929 -6.32415,-2.44276 z m 10.82415,-4.4327 c -1.375,-0.44035 -3.4,-0.80064 -4.5,-0.80064 -1.58367,0 -1.47958,0.16667 0.5,0.80064 1.375,0.44035 3.4,0.80064 4.5,0.80064 1.58367,0 1.47958,-0.16667 -0.5,-0.80064 z m -16.5,-4.45504 c -5.5,-1.82216 -14.63857,-5.40065 -20.30793,-7.9522 -5.66936,-2.55156 -10.80139,-4.33422 -11.40451,-3.96147 -0.64095,0.39614 -0.81299,0.21888 -0.41406,-0.42661 0.37538,-0.60738 -0.2005,-1.57691 -1.27975,-2.15451 -2.55112,-1.36532 -3.38503,-1.33049 -2.49826,0.10434 0.44563,0.72104 0.27393,0.88282 -0.45729,0.4309 -0.64395,-0.39798 -0.92377,-1.12335 -0.62182,-1.61192 0.30196,-0.48857 -0.9282,-1.64752 -2.73368,-2.57543 -1.80549,-0.92792 -5.7577,-3.34372 -8.7827,-5.36845 -6.82868,-4.57065 -8,-5.26078 -8,-4.71352 0,0.23876 3.4875,2.83055 7.75,5.75953 4.2625,2.92898 8.27983,6.05211 8.92739,6.94029 0.64757,0.88817 2.89757,2.31917 5,3.18 2.10244,0.86082 7.84922,3.24347 12.77063,5.29476 10.48804,4.37152 28.39797,10.47483 30.55198,10.41144 0.825,-0.0243 -3,-1.53499 -8.5,-3.35715 z m 120.5,-10.54496 c 1.82797,-1.18132 0.24909,-1.18132 -2.5,0 -1.31874,0.56668 -1.48906,0.87815 -0.5,0.9144 0.825,0.0302 2.175,-0.38124 3,-0.9144 z m -144,-9 c -1.925,-1.05389 -3.95,-1.91617 -4.5,-1.91617 -0.55,0 0.575,0.86228 2.5,1.91617 1.925,1.05389 3.95,1.91617 4.5,1.91617 0.55,0 -0.575,-0.86228 -2.5,-1.91617 z m 94.07692,-98.92307 c 2.85972,-2.85972 2.92308,-3.15078 2.92308,-13.42668 0,-9.16255 0.22343,-10.56199 1.75,-10.96092 0.9625,-0.25153 -0.275,-0.45733 -2.75,-0.45733 -2.475,0 -3.7125,0.2058 -2.75,0.45733 1.52781,0.39926 1.75,1.80287 1.75,11.05525 0,12.10458 -0.99879,14.25542 -6.6198,14.25542 -4.61825,0 -5.3802,-2.03381 -5.3802,-14.36093 0,-9.1519 0.22358,-10.55085 1.75,-10.94974 0.9625,-0.25153 -1.175,-0.45733 -4.75,-0.45733 -3.575,0 -5.7125,0.2058 -4.75,0.45733 1.4737,0.38511 1.75174,1.66936 1.76101,8.13399 0.0172,12.01828 0.79672,15.08835 4.38681,17.27753 4.64551,2.83277 9.18935,2.46583 12.6791,-1.02393 z m -134.82692,1.21734 c -2.18029,-0.41995 -2.24995,-0.79526 -2.24842,-12.11382 l 0.002,-11.68045 7.99346,11.99835 c 4.39641,6.59909 8.4457,12.14909 8.99842,12.33333 0.63895,0.21298 1.00496,-4.40336 1.00496,-12.67502 0,-11.5496 0.19644,-13.06135 1.75,-13.46733 0.9625,-0.25153 -0.275,-0.45733 -2.75,-0.45733 -2.475,0 -3.7125,0.2058 -2.75,0.45733 1.46852,0.38376 1.75,1.65185 1.75,7.88399 0,4.08468 -0.18167,7.42668 -0.40371,7.42668 -0.22204,0 -2.71301,-3.6 -5.53549,-8 l -5.13179,-8 -5.21451,0.0703 c -3.18845,0.043 -4.50833,0.34866 -3.39701,0.78676 1.59866,0.63021 1.83946,2.14179 2,12.55466 0.16946,10.9918 0.0395,11.89623 -1.81749,12.64986 -1.39258,0.56515 -0.48144,0.78955 3,0.73886 2.75,-0.04 3.9875,-0.26781 2.75,-0.50616 z m 38.18509,-0.83049 c 3.84123,-1.82278 7.56491,-7.95047 7.56491,-12.44881 0,-7.73278 -5.99994,-14.00414 -13.40484,-14.01123 -3.26395,-0.003 -4.53592,0.65967 -7.75,4.03837 -3.41016,3.58483 -3.84516,4.6086 -3.84516,9.04966 0,11.46638 8.19911,17.75477 17.43509,13.37201 z m -9.43509,-1.46378 c -1.68868,-1.68868 -2,-3.33333 -2,-10.56574 0,-4.71116 0.43813,-9.3844 0.97362,-10.38497 1.12059,-2.09383 5.32209,-3.4076 8.08912,-2.52938 4.5287,1.43736 5.15921,20.07704 0.80269,23.73009 -2.7411,2.29848 -5.40151,2.21392 -7.86543,-0.25 z m 57,-1.82287 c 0,-3.8173 -0.20513,-4.25178 -1.5,-3.17713 -0.825,0.68469 -1.5,1.83927 -1.5,2.56574 0,1.776 -3.93712,4.43426 -6.56752,4.43426 -3.45601,0 -5.5611,-3.32189 -6.13181,-9.67612 -1.0568,-11.76639 3.2805,-18.794 9.2039,-14.91284 1.42258,0.93211 3.08824,2.79594 3.70148,4.14185 1.63605,3.59073 2.79395,2.98786 2.79395,-1.4547 v -3.90182 l -6.11252,-0.70943 c -5.17914,-0.6011 -6.50581,-0.41579 -8.68821,1.2136 -8.80646,6.57498 -9.53023,17.96097 -1.54117,24.24517 2.23948,1.76156 3.8576,2.08245 9.51998,1.88787 l 6.82192,-0.23442 z m 19.95312,3.34711 c 11.9313,-6.16991 7.74665,-26.52424 -5.45312,-26.52424 -7.23377,0 -12.5,5.93286 -12.5,14.08231 0,10.13253 9.58012,16.77178 17.95312,12.44193 z m -9.45312,-0.88154 c -1.76861,-1.31008 -2,-2.64197 -2,-11.51209 0,-5.55638 0.46,-10.49061 1.03125,-11.06186 1.8803,-1.8803 6.85857,-2.27461 8.96875,-0.71039 1.76852,1.31096 2,2.6434 2,11.51235 0,5.55599 -0.45999,10.48968 -1.03125,11.06079 -1.87991,1.87945 -6.85863,2.27425 -8.96875,0.7112 z m 53.75,1.65157 c -2.18029,-0.41995 -2.24995,-0.79526 -2.24842,-12.11382 l 0.002,-11.68045 7.99346,11.99835 c 4.39641,6.59909 8.4457,12.14909 8.99842,12.33333 0.63895,0.21298 1.00496,-4.40336 1.00496,-12.67502 0,-11.5496 0.19644,-13.06135 1.75,-13.46733 0.9625,-0.25153 -0.275,-0.45733 -2.75,-0.45733 -2.475,0 -3.7125,0.2058 -2.75,0.45733 1.47372,0.38512 1.75,1.66138 1.75,8.08399 0,4.19468 -0.37704,7.19918 -0.83786,6.67668 -0.46082,-0.5225 -2.97038,-4.2125 -5.57679,-8.2 l -4.73894,-7.25 -5.17321,0.0703 c -3.22991,0.0439 -4.48128,0.34264 -3.33125,0.79534 1.63979,0.64547 1.84921,2.0296 1.90812,12.61116 0.0601,10.80136 -0.10797,11.9544 -1.84195,12.63437 -1.21626,0.47696 -0.0952,0.72438 3.09188,0.68237 2.75,-0.0362 3.9875,-0.26091 2.75,-0.49926 z m 37.5,0.0164 c -1.54825,-0.4046 -1.75,-1.88995 -1.75,-12.88399 0,-6.83468 0.31288,-12.42668 0.69528,-12.42668 1.26242,0 6.30472,5.34811 6.30472,6.68709 0,0.7221 0.45,1.31291 1,1.31291 0.55,0 1,-2.025 1,-4.5 v -4.5 h -11.89496 -11.89497 l -0.38859,4.07475 c -0.44918,4.71013 0.75196,6.17738 2.11727,2.58634 0.88338,-2.32345 4.58813,-5.66109 6.28376,-5.66109 0.42762,0 0.77749,5.5937 0.77749,12.43045 0,12.09576 -0.0606,12.44212 -2.25,12.86382 -1.2375,0.23835 0.9,0.44245 4.75,0.45355 3.85,0.0111 6.2125,-0.18562 5.25,-0.43715 z m 19,-0.39077 c -2.36602,-1.37808 -2.54035,-11.67939 -0.21275,-12.57257 2.36605,-0.90794 5.46275,2.54158 5.46275,6.08515 0,4.45692 2.48958,7.56752 6.0567,7.56752 1.61882,0 2.9433,-0.45 2.9433,-1 0,-0.55 -0.675,-1 -1.5,-1 -1.05546,0 -1.5,-1.06653 -1.5,-3.59879 0,-2.73646 -0.74419,-4.29397 -3.10576,-6.5 -2.18491,-2.04102 -2.62965,-2.90121 -1.5,-2.90121 2.41001,0 5.60576,-3.67322 5.60576,-6.4433 0,-4.21575 -3.35519,-5.5707 -13.47251,-5.4407 -4.96512,0.0638 -8.23999,0.3218 -7.27749,0.57333 1.54277,0.40316 1.75,1.86377 1.75,12.3343 0,10.25645 -0.23878,12.01606 -1.75,12.89627 -1.32813,0.77357 -0.3036,1.01928 4.25,1.01928 4.5536,0 5.57813,-0.24571 4.25,-1.01928 z m -1.75,-19.4199 c 0,-5.42994 0.0378,-5.5 2.96482,-5.5 1.90777,0 3.33389,0.68962 4,1.93426 2.39105,4.46771 0.0903,9.06574 -4.53625,9.06574 -2.27705,0 -2.42857,-0.34314 -2.42857,-5.5 z m 36.25,19.46884 c -1.84546,-0.74179 -2.25,-1.67938 -2.25,-5.21483 0,-5.60897 5.99059,-18.41495 9.2213,-19.71223 1.81628,-0.72932 1.26404,-0.90433 -2.7213,-0.86239 -2.75,0.0289 -4.2125,0.25841 -3.25,0.50994 2.38958,0.62446 2.18835,2.00827 -1.10549,7.60239 l -2.82138,4.79172 -3.17931,-5.96498 c -2.85586,-5.35815 -2.99946,-6.01185 -1.41156,-6.42572 0.97226,-0.2534 -1.09461,-0.51294 -4.59304,-0.57674 -6.17716,-0.11265 -6.3008,-0.0655 -4.28274,1.634 1.14292,0.9625 3.66778,4.42353 5.61078,7.69117 2.73899,4.60629 3.53274,7.02888 3.53274,10.78223 0,4.08571 -0.35106,4.98216 -2.25,5.74544 -1.66025,0.66734 -0.41523,0.90439 4.75,0.90439 5.16523,0 6.41025,-0.23705 4.75,-0.90439 z M 264.58426,248.74965 c 3.24109,-1.23226 6.55695,-6.58901 6.56182,-10.60058 0.003,-2.60901 1.50957,-4.46854 9.92888,-12.25639 7.43641,-6.87866 10.67879,-10.68891 12.93067,-15.19532 6.03348,-12.07406 4.88833,-23.93903 -3.1561,-32.70049 -5.29124,-5.76287 -10.59446,-8.22823 -17.69971,-8.22823 -14.63862,0 -21.7935,9.14975 -29.48121,37.70092 -4.80283,17.8371 -11.82363,26.11833 -22.92343,27.03881 -4.42866,0.36726 -6.15967,0.0307 -9.0593,-1.76136 -6.22098,-3.84478 -8.21643,-11.06484 -5.1117,-18.4955 1.1451,-2.7406 2.2606,-3.63414 5.6896,-4.55748 6.34434,-1.70835 10.39821,-6.30249 11.88626,-13.47035 0.67735,-3.26281 1.40441,-7.74736 1.61567,-9.96567 0.21127,-2.21831 0.87335,-6.50829 1.47128,-9.53329 0.59794,-3.025 1.2807,-11.8 1.51724,-19.5 0.4205,-13.68772 0.48111,-14.00664 2.7175,-14.29757 2.44589,-0.31819 7.67482,3.16648 7.68306,5.12015 0.003,0.64758 1.07452,2.51418 2.38175,4.148 2.0553,2.56878 2.59567,2.78892 3.99503,1.62756 2.59687,-2.15521 1.95252,-3.56962 -3.90651,-8.57514 -4.07741,-3.48345 -6.63167,-4.86735 -9.75,-5.28259 -2.32388,-0.30945 -5.39585,-1.4253 -6.82659,-2.47968 -2.32224,-1.71136 -3.23117,-1.80062 -8.47124,-0.83194 -6.35338,1.17448 -9.0506,3.00482 -8.09554,5.49367 0.89008,2.3195 4.10352,1.92351 7.48576,-0.92246 3.2818,-2.76145 6.35014,-3.20771 8.04164,-1.16957 0.84607,1.01945 0.38746,2.01285 -1.96204,4.25 -4.99576,4.75685 -9.40166,11.31036 -16.46404,24.4892 -10.995,20.51736 -12.71007,28.11537 -7.93319,35.14518 2.19287,3.22709 2.5027,4.76057 2.52196,12.48214 0.0275,11.01399 2.02373,15.98137 8.01611,19.94694 5.79143,3.83259 14.86131,4.46841 20.76653,1.45579 10.35344,-5.28193 14.14564,-11.20498 20.2411,-31.61467 7.01068,-23.47413 11.96651,-30.40684 22.35192,-31.26808 11.70197,-0.97042 20.79526,8.26731 20.73405,21.06339 -0.046,9.62876 -4.19768,16.95567 -14.91838,26.32835 -7.29152,6.37469 -9.02415,7.44598 -11.17163,6.90748 -6.89809,-1.72977 -8.0312,-1.68574 -11.48062,0.44613 -11.22616,6.93814 -2.50813,23.7701 9.8734,19.06265 z m -59.54639,-45.52457 c -4.83234,-2.62633 -5.39074,-6.18451 -2.43761,-15.53283 1.43264,-4.5351 2.40843,-8.44199 2.16844,-8.68199 -1.56267,-1.56266 12.3789,-26.09801 17.98631,-31.65359 l 2.89481,-2.86805 0.29565,9.36805 c 0.29222,9.25926 -1.89818,27.24153 -3.73011,30.62262 -0.52014,0.95999 -1.87665,4.9784 -3.01448,8.92981 -2.9465,10.23257 -7.53945,13.41581 -14.16301,9.81598 z M 52.832936,185.53722 c -0.31923,-0.79773 -0.55619,-0.56078 -0.60417,0.60417 -0.0434,1.05416 0.19293,1.64479 0.52522,1.3125 0.33229,-0.3323 0.36782,-1.1948 0.0789,-1.91667 z"
         id="path1"
         inkscape:label="vector"
         sodipodi:nodetypes="ssssssssssscssssscsssssssssssssssscssssssssssssssssssssssssssscssssssssssssssscssssssssssssssssssscsccccsscsssssssssssssscssssssssssssssssssssssssssssssssssssssssssssssssssssssssscccssssssssscsssssccsscssssssssssssssssscsssscsssssssssssssccssssssssscssssssssssssscccsssssssssssssssssssssssssssssssssscsssssssssscsssssssssssssscsssssssssssssssssssssssssscsssscsscc" />
    </g>
    <path
       style="fill:#000080;stroke-width:0.574909"
       d="m 248.64799,436.73318 c 0,-0.36574 0.32338,-0.67009 0.71863,-0.67634 0.39525,-0.006 4.46623,-0.39255 9.04661,-0.85847 10.04055,-1.02132 18.40528,-2.49754 18.40528,-3.24818 0,-0.30202 -0.19403,-0.43725 -0.43118,-0.30052 -0.23715,0.13672 -4.95859,0.38694 -10.49208,0.55602 -8.24876,0.25207 -9.02539,0.21546 -4.31182,-0.20323 44.45079,-3.94839 87.94361,-23.79493 119.51214,-54.53548 10.37978,-10.10755 23.92757,-26.13994 23.92757,-28.31578 0,-0.4762 0.50275,-1.3208 1.11723,-1.87689 0.61448,-0.5561 1.2823,-1.76264 1.48405,-2.68121 0.20175,-0.91857 0.59665,-1.52809 0.87755,-1.35448 0.2809,0.17361 0.87944,-0.5668 1.33009,-1.64535 0.45064,-1.07855 2.36667,-4.64623 4.25785,-7.92817 13.87078,-24.07139 24.24889,-55.06785 26.25147,-78.40566 0.65203,-7.59862 1.36364,-38.51958 0.94601,-41.10597 l -0.41774,-2.58709 -0.37969,2.58709 c -0.20883,1.4229 -0.64577,8.27868 -0.97098,15.23508 -1.48942,31.85955 -3.21298,41.60412 -12.06256,68.19852 -4.82095,14.48774 -8.90539,24.15323 -14.03536,33.21349 -17.40779,30.74468 -43.66279,56.35999 -76.45907,74.59616 -8.68092,4.82697 -13.87678,6.83007 -6.3804,2.45975 2.20838,-1.28746 4.10148,-2.581 4.20687,-2.87454 0.10541,-0.29353 0.55815,-0.5337 1.00609,-0.5337 0.44796,0 0.81446,-0.35132 0.81446,-0.78071 0,-0.42939 3.42789,-2.99843 7.61754,-5.70898 10.9193,-7.06439 21.80551,-15.97159 32.08075,-26.2488 7.80701,-7.8085 16.06785,-17.62315 16.06785,-19.09011 0,-1.10179 -1.20362,-0.17719 -8.33832,6.40537 -4.10941,3.7914 -8.56837,7.41333 -9.90877,8.04872 -3.04162,1.44183 -3.46988,1.45045 -2.19726,0.0442 0.55302,-0.61108 1.33428,-0.98488 1.73614,-0.83067 0.86805,0.3331 7.78494,-6.41083 7.78494,-7.59027 0,-0.449 0.39618,-0.81637 0.88041,-0.81637 0.48423,0 1.04589,-0.43125 1.24815,-0.95833 0.20226,-0.52708 1.11385,-1.62659 2.02574,-2.44336 0.91191,-0.81677 1.71542,-1.88184 1.7856,-2.36683 0.0702,-0.485 1.82502,-3.07209 3.89966,-5.74909 8.71125,-11.24053 17.84599,-26.98391 23.40028,-40.32951 4.43621,-10.65915 9.93819,-30.53016 11.82999,-42.72535 3.52672,-22.73441 2.04844,-61.12938 -3.16532,-82.21194 -6.26774,-25.34448 -19.8608,-51.80835 -37.75874,-73.5112 -6.00443,-7.28091 -18.15531,-19.226242 -25.70484,-25.270011 -23.03568,-18.441192 -49.34793,-30.917254 -78.87222,-37.397583 -15.00659,-3.29382 -17.57247,-3.524041 -39.27151,-3.523604 -18.30842,3.68e-4 -20.3651,0.10207 -26.73325,1.321945 -22.39337,4.289649 -39.17848,9.870598 -56.34105,18.733068 -39.11963,20.200741 -69.055648,52.031535 -87.434331,92.968425 -7.589081,16.90401 -13.306665,39.33468 -15.44659,60.59857 -0.50914,5.0592 -1.161055,11.52692 -1.448701,14.37272 -0.448969,4.44185 -0.48338,3.91295 -0.243123,-3.73691 0.347215,-11.05541 1.480003,-21.28089 3.694294,-33.34777 1.915829,-10.4404 1.904982,-10.34529 1.179706,-10.34529 -1.266664,0 -5.16013,21.12157 -6.623522,35.9318 -1.812561,18.34396 -1.59792,16.86959 -2.176089,14.94762 -0.661506,-2.19899 -0.09642,-15.09608 1.055934,-24.09983 1.614508,-12.61473 5.214122,-29.98393 7.9923,-38.56521 l 0.372252,-1.14982 -0.971675,1.14982 c -0.534422,0.6324 -1.719527,2.70207 -2.633569,4.59927 -2.392455,4.96582 -2.048508,2.70508 0.896554,-5.89298 8.023471,-23.42438 19.162086,-44.02052 34.585607,-63.95137 6.373302,-8.23583 23.166773,-25.199094 31.556623,-31.875686 29.1814,-23.222396 63.88083,-37.766981 100.25201,-42.021546 8.48914,-0.993028 28.48549,-1.120648 39.76705,-0.253801 38.06767,2.925029 79.32891,19.994358 109.88168,45.45686 20.828,17.357936 38.67508,38.802893 50.11862,60.222243 11.195,20.95416 17.74796,41.79817 21.71549,69.07389 2.20103,15.13145 1.74501,44.40976 -0.98253,63.08248 -2.56024,17.52735 -9.60487,39.54046 -18.17264,56.78597 -29.30606,58.98829 -85.49035,99.82429 -151.49087,110.10698 -9.10081,1.41788 -25.47127,2.20706 -25.47127,1.22791 z m 34.20706,-5.83915 c -0.19542,-0.3162 -0.84219,-0.57491 -1.43727,-0.57491 -0.59508,0 -1.24185,0.25871 -1.43727,0.57491 -0.20786,0.33632 0.38861,0.57491 1.43727,0.57491 1.04866,0 1.64513,-0.23859 1.43727,-0.57491 z m 76.17882,-31.08627 c 8.0728,-5.56126 16.44095,-12.88116 28.17261,-24.64351 10.70834,-10.73636 16.42119,-17.28362 15.08092,-17.28362 -0.27915,0 -2.8848,2.68069 -5.79033,5.9571 -10.48448,11.82278 -22.60724,22.82342 -42.04019,38.14886 -0.48844,0.38518 -0.61075,0.70857 -0.2718,0.71863 0.33895,0.0101 2.5209,-1.2938 4.84879,-2.89746 z m 46.78551,-45.64381 c 1.34585,-2.05402 1.15147,-2.26948 -0.79624,-0.88259 -1.83635,1.3076 -2.23689,2.29963 -0.92849,2.29963 0.43794,0 1.21406,-0.63767 1.72473,-1.41704 z m 3.00529,-4.06253 c 1.38302,-2.11077 0.69247,-2.2599 -1.22019,-0.26352 -1.27099,1.32664 -1.4284,1.71873 -0.68997,1.71873 0.52616,0 1.38573,-0.65484 1.91016,-1.45521 z M 60.652862,179.3715 c 0,-0.7905 -0.258709,-1.43728 -0.574909,-1.43728 -0.3162,0 -0.574909,0.64678 -0.574909,1.43728 0,0.7905 0.258709,1.43727 0.574909,1.43727 0.3162,0 0.574909,-0.64677 0.574909,-1.43727 z m 2.313864,-7.51124 c 0.701283,-1.84452 0.718494,-3.12457 0.04201,-3.12457 -0.480894,0 -1.780967,3.00033 -1.780967,4.11014 0,1.08322 1.214,0.39517 1.738957,-0.98557 z"
       id="path2" />
    <path
       style="fill:#000080;stroke-width:0.574909"
       d="m 255.83435,247.25823 c -3.51175,-1.5675 -6.61145,-6.31144 -6.61145,-10.1185 0,-3.39729 2.41312,-6.91047 6.00626,-8.74428 1.9019,-0.97067 2.83279,-1.08823 5.74908,-0.72602 6.77803,0.84185 7.39312,0.72767 11.009,-2.04363 5.18633,-3.97493 13.10624,-11.9948 15.36795,-15.5619 3.46561,-5.46588 4.56334,-9.63889 4.293,-16.31969 -0.27195,-6.72065 -1.7959,-10.63954 -5.70301,-14.66556 -3.60675,-3.7165 -7.84758,-5.42559 -13.43848,-5.4158 -8.23148,0.0144 -12.81386,3.35596 -17.24643,12.57634 -2.5716,5.34929 -3.26491,7.25828 -8.36314,23.02756 -5.17381,16.00303 -9.49588,22.39642 -18.07228,26.73325 -3.70488,1.87345 -4.33792,2.00942 -9.18158,1.97227 -7.9582,-0.061 -13.686,-2.81306 -16.75525,-8.05033 -2.15424,-3.67593 -2.52169,-5.49223 -3.025,-14.95238 -0.43866,-8.24493 -0.54908,-8.82337 -2.25278,-11.80112 -3.85717,-6.74164 -3.53692,-11.60174 1.50972,-22.91151 6.2028,-13.90077 14.7053,-28.11237 21.00127,-35.10279 4.11285,-4.5665 4.55701,-6.05647 2.16028,-7.2468 -1.7586,-0.8734 -4.19899,-0.18115 -7.35737,2.08703 -3.32284,2.38628 -5.63342,2.80184 -6.50664,1.17021 -0.52007,-0.97177 -0.50001,-1.45115 0.0907,-2.16687 1.30514,-1.58132 5.52291,-3.08846 9.59958,-3.43023 3.50924,-0.2942 4.18317,-0.17294 6.4625,1.16284 1.39959,0.82021 3.96174,1.79176 5.69366,2.15899 1.73193,0.36724 4.07719,1.13711 5.21168,1.71083 2.67067,1.35057 8.71606,6.40653 9.99602,8.35999 0.96987,1.48022 0.95794,1.55857 -0.45224,2.96874 l -1.4484,1.4484 -1.56592,-1.66306 c -0.86126,-0.91468 -2.06408,-2.77308 -2.67293,-4.12979 -1.44247,-3.21424 -5.04166,-5.86944 -7.95618,-5.86944 -1.51854,0 -2.26589,0.29611 -2.53928,1.00609 -0.21307,0.55335 -0.63668,6.56833 -0.94135,13.36663 -0.30467,6.79829 -0.94138,14.94762 -1.4149,18.10962 -0.47353,3.162 -1.12204,7.6894 -1.44114,10.0609 -1.58728,11.79661 -3.34548,17.04071 -6.83371,20.38264 -0.85786,0.82189 -3.60811,2.3389 -6.11167,3.37114 -4.00645,1.6519 -4.71532,2.17264 -5.9156,4.34566 -1.86903,3.38374 -2.29718,8.9473 -0.95833,12.45301 1.36614,3.57719 3.37726,5.80219 6.8224,7.54797 2.57509,1.3049 3.42978,1.4464 7.36174,1.21878 11.25975,-0.65182 17.98664,-7.86761 23.19948,-24.88558 6.0386,-19.71376 7.6051,-23.74001 11.53876,-29.65708 1.43284,-2.1553 3.63612,-4.73526 4.89618,-5.73325 6.15918,-4.87816 15.97533,-5.77147 23.45148,-2.13418 1.46555,0.71302 4.3659,2.98001 6.44521,5.03774 8.77491,8.68385 10.41789,20.47285 4.51244,32.37852 -2.58238,5.2062 -5.60298,8.83887 -13.54649,16.29147 -7.88517,7.39785 -8.92025,8.80849 -9.92495,13.52584 -1.62268,7.61898 -7.98658,11.60481 -14.1419,8.85733 z m -43.01977,-44.56905 c 1.0027,-0.61141 2.46371,-2.22737 3.24669,-3.59103 2.5347,-4.41458 7.14228,-19.29213 8.1702,-26.38101 1.19424,-8.23587 1.85054,-28.36869 0.94305,-28.92954 -1.61683,-0.99926 -9.47398,9.66894 -16.32641,22.16748 -3.71004,6.76697 -4.49024,8.75707 -5.48516,13.99132 -0.30051,1.581 -1.25553,5.54077 -2.12225,8.79948 -2.22121,8.35132 -1.3072,11.57836 3.9565,13.96902 3.01862,1.37099 5.3396,1.36315 7.61738,-0.0257 z"
       id="path3" />
    <path
       style="fill:#000080;stroke-width:0.574909"
       d="m 120.42313,299.85265 c 0.96574,-1.8045 0.76714,-21.25356 -0.23667,-23.17787 l -0.82473,-1.581 4.13399,0.0396 4.134,0.0396 5.03969,7.74991 c 2.77184,4.26245 5.29425,7.59259 5.60536,7.40031 0.73341,-0.45327 0.73753,-11.82793 0.005,-13.75467 -0.53746,-1.41362 -0.47502,-1.4747 1.50766,-1.4747 1.57509,0 1.93256,0.17139 1.49895,0.71864 -0.31317,0.39525 -0.74856,6.01626 -0.96754,12.49114 -0.21898,6.47488 -0.53504,11.90776 -0.70235,12.07308 -0.46519,0.45966 -2.48162,-2.22579 -10.13465,-13.49723 l -7.02629,-10.34835 -0.15894,9.77344 c -0.0874,5.3754 0.0752,10.87296 0.36149,12.21681 0.51856,2.43461 0.51442,2.44336 -1.15484,2.44336 -1.47812,0 -1.60522,-0.13085 -1.08012,-1.11202 z"
       id="path4" />
    <path
       style="fill:#000080;stroke-width:0.574909"
       d="m 152.8972,300.15601 c -2.06311,-0.89863 -4.7051,-3.87169 -5.83334,-6.56431 -1.30226,-3.1079 -1.5972,-8.68908 -0.58683,-11.10434 1.06585,-2.54791 4.63548,-6.59474 6.8081,-7.71825 0.8776,-0.45383 2.83736,-0.7968 4.35501,-0.76215 l 2.75937,0.063 -2.58622,0.50633 c -3.3522,0.65629 -5.2895,2.14413 -5.91005,4.53892 -0.27407,1.05767 -0.41485,5.48096 -0.31284,9.82953 0.17624,7.51256 0.25709,7.98345 1.62275,9.45118 0.7905,0.84958 1.95469,1.75871 2.58709,2.02028 l 1.14982,0.4756 -1.14982,0.0139 c -0.6324,0.008 -1.93877,-0.32971 -2.90304,-0.74972 z"
       id="path5" />
    <path
       style="fill:#000080;stroke-width:0.574909"
       d="m 161.08604,299.52837 c 2.26808,-1.58864 3.34052,-5.68527 3.31129,-12.64896 -0.0218,-5.19965 -0.24606,-6.80951 -1.26122,-9.05481 -1.37363,-3.03815 -1.09274,-3.33912 1.35396,-1.45077 6.87491,5.306 7.50064,14.2558 1.45155,20.76154 -1.59902,1.71972 -4.12381,3.2544 -5.35403,3.2544 -0.40225,0 -0.17796,-0.38763 0.49845,-0.8614 z"
       id="path6" />
    <path
       style="fill:#000080;stroke-width:0.813044"
       d=""
       id="path7" />
    <path
       style="fill:#000080;stroke-width:0.813044"
       d="m 193.30721,297.77722 c -4.61557,-4.78515 -5.44173,-9.88102 -2.56526,-15.82302 1.73438,-3.58275 6.04023,-7.57234 8.12395,-7.52726 0.77274,0.0167 0.6574,0.30689 -0.35618,0.89607 -2.45688,1.42816 -3.78578,5.88718 -3.78578,12.70292 0,4.63261 0.41759,7.17763 1.53844,9.37612 1.95209,3.82889 0.5481,4.00713 -2.95517,0.37517 z"
       id="path8" />
    <path
       style="fill:#000080;stroke-width:0.10163"
       d="m 167.08046,418.07168 c -11.16111,-5.28535 -23.53876,-12.23179 -31.86115,-17.88074 -8.10783,-5.50331 -16.17025,-11.95994 -23.88315,-19.12635 -3.87127,-3.59697 -10.36647,-10.2508 -14.187873,-14.53437 -8.370628,-9.383 -16.200736,-19.97506 -22.163222,-29.98099 -4.338407,-7.28048 -9.119523,-16.22105 -11.070378,-20.70134 -0.76802,-1.76382 -1.141968,-3.0047 -0.851363,-2.8251 0.408991,0.25277 2.696538,4.20773 5.231108,9.04411 4.457959,8.50651 7.739737,14.03114 12.798691,21.54565 10.545654,15.66439 23.318947,30.32766 35.731077,41.01798 15.33162,13.20482 33.54641,24.60415 53.17773,33.28014 1.57931,0.69797 2.96293,1.31057 3.07473,1.36133 0.1317,0.0598 -0.40502,0.0935 -1.52446,0.0957 l -1.72772,0.003 z"
       id="path9" />
    <path
       style="fill:#000080;stroke-width:0.10163"
       d=""
       id="path10" />
    <path
       style="fill:#000080;stroke-width:0.10163"
       d="m 196.35003,421.24484 c -4.5008,-1.05776 -17.09239,-5.36932 -26.06821,-8.92618 -4.06951,-1.61263 -16.15509,-6.64302 -17.2329,-7.17286 -1.54102,-0.75755 -2.83784,-1.65402 -3.75379,-2.59492 -1.64022,-1.68491 -3.84821,-3.38315 -9.9702,-7.66839 -2.78793,-1.95148 -5.56425,-3.98871 -6.34149,-4.65329 -0.19564,-0.16728 -0.3204,-0.34011 -0.27725,-0.38405 0.18368,-0.18706 1.27017,0.46253 6.01937,3.59885 4.92815,3.25449 7.78376,5.03058 10.31549,6.41587 1.38544,0.75807 2.55393,1.61653 2.848,2.09236 0.18568,0.30043 0.19738,0.39094 0.0948,0.73332 -0.15952,0.53246 0.0558,1.03166 0.6217,1.44163 0.78049,0.56539 1.06258,0.28136 0.54889,-0.55266 -0.13771,-0.22359 -0.25062,-0.51537 -0.25091,-0.64841 -4.8e-4,-0.22526 0.0298,-0.23847 0.44015,-0.19222 0.45319,0.0511 2.16621,0.80921 2.7209,1.20419 0.47038,0.33493 0.90365,0.98883 0.90365,1.36379 0,0.17866 -0.0739,0.47294 -0.16418,0.65394 -0.23083,0.46272 -0.0647,0.61348 0.42094,0.38192 0.33374,-0.15915 0.41846,-0.16005 1.14436,-0.0121 1.58212,0.32253 6.05217,1.96827 9.37171,3.45038 6.63674,2.96317 14.93589,6.22435 21.59647,8.4864 5.38805,1.82988 8.69356,3.13426 7.92717,3.12813 -0.16769,-10e-4 -0.57929,-0.0669 -0.91467,-0.14574 z"
       id="path11" />
    <path
       style="fill:#000080;stroke-width:0.10163"
       d="m 167.18209,400.19623 c -1.0893,-0.36432 -3.84733,-1.76146 -5.05892,-2.5627 -1.46317,-0.96761 -1.4253,-1.16946 0.10827,-0.577 2.11751,0.81804 5.6609,2.80888 5.85788,3.29122 0.0691,0.16926 0.0347,0.1635 -0.90723,-0.15152 z"
       id="path12" />
    <path
       style="fill:#000080;stroke-width:0.10163"
       d="m 199.93115,429.28116 c -3.48082,-0.54178 -11.91307,-2.98214 -19.13058,-5.53655 -3.64255,-1.28916 -6.24772,-2.31327 -9.588,-3.76907 l -1.25431,-0.54667 1.61001,-0.0508 1.61002,-0.0508 3.45543,1.3863 c 6.01244,2.41216 11.31979,4.28119 17.53125,6.1738 4.36595,1.33029 6.60479,2.11028 6.90725,2.40642 0.18566,0.18179 0.10191,0.18086 -1.14107,-0.0126 z"
       id="path13" />
    <path
       style="fill:#000080;stroke-width:0.10163"
       d="m 205.19188,423.27461 c -1.92197,-0.23052 -5.03071,-1.07286 -5.03071,-1.3631 0,-0.14237 1.34782,-0.1121 2.45764,0.0552 1.78825,0.26955 4.52788,1.0703 4.39538,1.28469 -0.0533,0.0862 -1.1781,0.10048 -1.82231,0.0232 z"
       id="path14" />
    <path
       style="fill:#000080;stroke-width:0.10163"
       d=""
       id="path15" />
    <path
       style="fill:#000080;stroke-width:0.10163"
       d="m 214.33862,431.30646 c -1.07505,-0.10845 -1.09673,-0.2643 -0.0625,-0.44913 0.77125,-0.13783 2.02756,-0.0869 2.5016,0.1014 0.23953,0.0951 0.27221,0.13931 0.15245,0.20599 -0.18047,0.10047 -2.0092,0.20049 -2.59158,0.14174 z"
       id="path16" />
    <path
       style="fill:#000080;stroke-width:0.10163"
       d="m 219.85207,432.21233 c -0.44988,-0.0682 -0.32371,-0.2085 0.30489,-0.33914 0.58941,-0.1225 2.78637,-0.0814 3.25218,0.0609 0.68996,0.21071 -0.18164,0.35735 -1.99598,0.33579 -0.70488,-0.008 -1.40737,-0.0343 -1.56109,-0.0576 z"
       id="path17" />
    <path
       style="fill:#000080;stroke-width:0.10163"
       d="m 239.82439,430.28371 c 0.0989,-0.0258 0.23608,-0.0241 0.30489,0.004 0.0688,0.0278 -0.0121,0.0489 -0.17979,0.0469 -0.16769,-0.002 -0.22398,-0.0249 -0.1251,-0.0506 z"
       id="path18" />
    <path
       style="fill:#000080;stroke-width:0.10163"
       d="m 238.88237,430.25447 -3.60788,-0.0528 7.72392,-0.2855 c 25.16427,-0.93016 29.01568,-1.33632 44.97147,-4.74254 1.87254,-0.39975 3.48465,-0.7499 3.58247,-0.77811 0.15009,-0.0433 0.17786,0.0181 0.17786,0.39318 v 0.44448 l -1.54987,0.37416 c -6.64342,1.60383 -14.67913,3.1188 -20.30068,3.82726 -6.14329,0.77422 -16.10434,1.03768 -30.99729,0.81985 z"
       id="path19" />
    <path
       style="fill:#000080;stroke-width:0.10163"
       d="m 250.6121,437.06182 c -1.41255,-0.0755 -1.87157,-0.18474 -1.87157,-0.44523 0,-0.36092 0.36164,-0.47172 2.04253,-0.62576 2.68614,-0.24618 6.67202,-0.6433 9.18763,-0.91538 9.54082,-1.03192 16.92897,-2.39545 16.91991,-3.1227 -0.004,-0.35051 -0.14973,-0.39114 -1.02377,-0.28611 -1.61501,0.19407 -12.53819,0.63225 -15.13391,0.6071 -0.95363,-0.009 -0.72125,-0.0458 2.18505,-0.34404 9.85107,-1.01078 18.68314,-2.50771 27.25479,-4.61937 l 1.55745,-0.38368 v 2.50754 2.50753 l -2.51536,0.57787 c -13.23426,3.04043 -22.70391,4.25586 -35.69769,4.58181 -0.81051,0.0203 -2.11778,0.003 -2.90506,-0.0396 z m 31.94805,-5.69848 c 1.09526,-0.38181 -0.44832,-1.32145 -1.67036,-1.01682 -0.66007,0.16455 -0.94872,0.36599 -0.94872,0.66209 0,0.17288 0.0809,0.2728 0.27949,0.34534 0.37777,0.13797 1.95261,0.1443 2.33959,0.009 z"
       id="path20" />
    <path
       style="fill:#000080;stroke-width:0.10163"
       d="m 250.01091,437.36406 c -1.21309,-0.10824 -2.38799,-0.3554 -2.65351,-0.55821 -0.28986,-0.22139 -0.15378,-0.29077 1.43394,-0.73105 0.19497,-0.0541 0.19601,-0.0482 0.0254,0.14299 -0.2698,0.30243 -0.22639,0.62622 0.10163,0.75809 0.41371,0.16632 3.4747,0.24744 6.47894,0.17169 4.49103,-0.11323 10.77202,-0.58221 15.54946,-1.16104 4.35992,-0.52823 11.93939,-1.90882 17.56279,-3.19902 1.46392,-0.33588 2.78744,-0.63777 2.94115,-0.67087 0.43194,-0.093 0.33896,0.1451 -0.10163,0.26027 -0.713,0.18638 -3.01819,0.71113 -4.90367,1.11625 -9.04537,1.94354 -17.36134,3.15594 -25.56006,3.72644 -2.64065,0.18375 -9.42423,0.27387 -10.87445,0.14446 z"
       id="path21" />
    <path
       style="fill:#000080;stroke-width:0.10163"
       d="m 241.27069,432.84069 c 16.72484,-0.71284 23.6757,-1.2249 31.0481,-2.28729 1.14588,-0.16513 2.17108,-0.30038 2.27822,-0.30056 1.51222,-0.003 -7.51671,1.17901 -12.84779,1.68134 -1.59305,0.1501 -2.93991,0.31334 -2.99301,0.36274 -0.2356,0.2192 10.71741,-0.0815 15.74764,-0.4323 2.24378,-0.15648 2.23586,-0.15645 2.23586,-0.0107 0,0.0907 -0.2805,0.14029 -0.96548,0.17077 -0.53102,0.0236 -1.60577,0.0905 -2.38832,0.1486 -2.68371,0.19925 -8.82885,0.41566 -17.63288,0.62097 -5.70159,0.13296 -21.00457,0.40908 -21.74892,0.39243 -0.30743,-0.007 2.96253,-0.1626 7.26658,-0.34604 z"
       id="path22" />
    <path
       style="fill:#000080;stroke-width:0.00898295"
       d="m 275.48454,435.43615 v -0.1061 l 0.5547,-0.0922 c 3.90916,-0.65001 8.40248,-1.52536 11.96753,-2.33142 0.20998,-0.0475 0.83146,-0.18923 1.38107,-0.31501 1.28325,-0.29367 1.97042,-0.44981 2.07611,-0.47172 0.1423,-0.0295 0.26176,-0.0185 0.26176,0.0241 0,0.0502 -0.0953,0.12439 -0.2291,0.17833 -0.17198,0.0693 -1.568,0.3987 -3.57967,0.84457 -4.13861,0.91729 -8.18833,1.69576 -11.96079,2.29921 -0.23221,0.0371 -0.43332,0.0695 -0.4469,0.072 l -0.0247,0.004 z"
       id="path23" />
    <path
       style="fill:#000080;stroke-width:0.00898295"
       d="m 275.48454,435.43709 v -0.10705 l 0.47385,-0.0787 c 3.55286,-0.59021 7.54323,-1.35597 10.95695,-2.10264 0.70852,-0.15497 1.15728,-0.25635 2.84311,-0.64229 0.9315,-0.21325 1.59667,-0.36406 1.7055,-0.38668 0.1422,-0.0295 0.26176,-0.0186 0.26176,0.024 0,0.0498 -0.10054,0.12836 -0.22873,0.17868 -0.32603,0.128 -4.26845,1.01501 -7.04745,1.58562 -2.94905,0.60552 -6.32261,1.22163 -8.82575,1.61183 -0.0494,0.008 -0.10095,0.0163 -0.11453,0.0191 l -0.0247,0.005 z"
       id="path24" />
    <path
       style="fill:#000080;stroke-width:0.00898295"
       d="m 275.48454,435.57486 c 0,-0.0165 0.006,-0.023 0.0247,-0.0268 0.0136,-0.003 0.26522,-0.0437 0.55919,-0.0909 3.42897,-0.5508 7.16379,-1.26068 10.86936,-2.06594 1.79498,-0.39007 4.04505,-0.90585 4.43309,-1.01618 0.14028,-0.0399 0.27818,-0.10763 0.32707,-0.16067 0.0412,-0.0447 0.0464,-0.0736 0.0178,-0.0995 -0.0257,-0.0233 -0.13321,-0.0277 -0.22815,-0.009 -0.0838,0.0162 -0.7248,0.16163 -2.33556,0.53003 -1.546,0.35358 -2.25532,0.51114 -3.29707,0.73239 -2.77948,0.59032 -5.77981,1.16753 -8.61881,1.65811 -0.49185,0.085 -1.72709,0.29211 -1.74213,0.29211 -0.005,0 -0.01,-0.006 -0.01,-0.0135 0,-0.007 0.003,-0.0135 0.007,-0.0135 0.016,0 1.51487,-0.25127 2.03461,-0.34109 5.08609,-0.87892 10.10314,-1.93527 15.02186,-3.16286 0.37549,-0.0937 0.68978,-0.17261 0.69843,-0.17533 0.0146,-0.005 0.0157,0.008 0.0157,0.17324 v 0.17819 l -0.44241,0.10993 c -4.79828,1.19232 -9.66512,2.21635 -14.5681,3.06525 -0.78557,0.13602 -2.72685,0.45809 -2.7611,0.45809 -0.003,0 -0.006,-0.01 -0.006,-0.0217 z"
       id="path25" />
    <path
       style="fill:#000080;stroke-width:0.00898295"
       d="m 280.00374,431.16162 c -0.0411,-0.0499 -0.0547,-0.0851 -0.0547,-0.14193 0,-0.0726 0.0385,-0.14222 0.12992,-0.23451 0.20654,-0.2086 0.59053,-0.37165 1.03786,-0.44069 0.1438,-0.0222 0.45806,-0.0222 0.60186,0 0.44759,0.0691 0.83234,0.2325 1.03753,0.44069 0.0395,0.0401 0.0795,0.0867 0.0889,0.10351 0.0202,0.0362 0.0293,0.0372 -0.10559,-0.0121 -0.18509,-0.0677 -0.44579,-0.12328 -0.72585,-0.15478 -0.16988,-0.0191 -0.6743,-0.022 -0.83399,-0.005 -0.39544,0.0426 -0.71251,0.12028 -0.93844,0.2299 -0.0545,0.0264 -0.1164,0.0609 -0.13756,0.0765 -0.064,0.0473 -0.0894,0.10779 -0.0645,0.15421 0.0158,0.0296 -0.006,0.0197 -0.0355,-0.016 z"
       id="path26" />
    <path
       style="fill:#000080;stroke-width:0.00898295"
       d="m 280.97312,431.44639 c -0.14893,-0.009 -0.34761,-0.036 -0.48507,-0.067 -0.1031,-0.0232 -0.27353,-0.0756 -0.26708,-0.082 0.002,-0.002 0.044,0.006 0.0929,0.0182 0.15918,0.0398 0.34185,0.0652 0.63232,0.0876 0.15875,0.0123 0.99681,0.0165 1.17227,0.006 0.11715,-0.007 0.0775,0.003 -0.0981,0.0246 -0.13668,0.0169 -0.82858,0.0253 -1.04724,0.0127 z"
       id="path27" />
    <path
       style="fill:#000080;stroke-width:0.00898295"
       d="m 275.48454,433.94047 v -1.34172 l 0.0843,-0.0239 c 0.23226,-0.0659 0.51864,-0.16229 0.71069,-0.23918 0.30327,-0.12141 0.48412,-0.23389 0.52667,-0.32754 0.0415,-0.0915 -0.006,-0.28299 -0.0878,-0.35493 -0.0326,-0.0286 -0.0732,-0.0365 -0.20085,-0.0388 -0.0668,-10e-4 -0.082,0.002 -0.12159,0.0223 -0.0691,0.0363 -0.25938,0.0651 -0.69988,0.10593 -0.10844,0.0101 -0.2004,0.0183 -0.20436,0.0183 -0.004,0 -0.007,-0.33937 -0.007,-0.75416 v -0.75416 l 0.0292,-0.005 c 0.0161,-0.003 0.23737,-0.0395 0.49181,-0.0816 4.82391,-0.79907 9.72922,-1.80998 14.69162,-3.02773 0.72988,-0.17911 2.50453,-0.62923 2.55075,-0.64697 0.0125,-0.005 0.0139,0.24975 0.0139,2.55094 v 2.55627 l -0.0337,0.009 c -0.0964,0.0256 -1.41932,0.3538 -1.77638,0.44063 -2.2688,0.55175 -4.54745,1.06645 -6.78212,1.53193 -0.44992,0.0937 -1.54233,0.31727 -1.63939,0.33548 -0.0272,0.005 -0.26567,0.0521 -0.52999,0.10447 -2.03894,0.40386 -4.15814,0.78906 -6.29832,1.1448 -0.38854,0.0646 -0.7089,0.11743 -0.7119,0.11743 -0.003,0 -0.005,-0.60378 -0.005,-1.34173 z m 6.36442,-2.48534 c 0.44858,-0.0268 0.81241,-0.12577 0.96062,-0.26122 0.0647,-0.0591 0.0867,-0.10156 0.0877,-0.16899 0.004,-0.2478 -0.46014,-0.54921 -1.01676,-0.66097 -0.17844,-0.0358 -0.26721,-0.0443 -0.46271,-0.0443 -0.19593,0 -0.2842,0.008 -0.46425,0.0446 -0.46657,0.0937 -0.88564,0.32882 -0.99226,0.55672 -0.0263,0.0562 -0.0282,0.13648 -0.004,0.18868 0.0218,0.0479 0.10134,0.11925 0.17748,0.15912 0.18108,0.0948 0.51659,0.16877 0.84332,0.18591 0.20157,0.0106 0.69782,0.0108 0.87134,4.4e-4 z"
       id="path28" />
    <path
       style="fill:#000080;stroke-width:0.0508152"
       d="m 274.78333,430.27792 c 0,-0.0279 -0.0514,-0.0532 -0.11434,-0.056 -0.0629,-0.003 0.46878,-0.10298 1.18146,-0.22247 4.02663,-0.67507 8.32881,-1.54924 13.41522,-2.72588 17.21246,-3.98176 33.90255,-10.39663 49.92596,-19.18915 2.09949,-1.15206 5.67674,-3.21625 7.12683,-4.11242 0.41344,-0.25552 0.52086,-0.3032 0.52086,-0.23124 0,0.093 -0.75227,0.55606 -3.43003,2.11156 -15.01231,8.72056 -31.85464,15.70991 -48.75721,20.23361 -6.00608,1.60744 -11.96877,2.90941 -18.14103,3.96118 -1.85413,0.31594 -1.72772,0.29905 -1.72772,0.23085 z"
       id="path29" />
    <path
       style="fill:#000080;stroke-width:0.0508152"
       d="m 291.75561,424.84252 c 0,-0.33676 -0.0153,-0.41743 -0.0844,-0.44395 -0.0471,-0.0181 0.39708,-0.14063 1.0036,-0.27695 2.33367,-0.5245 4.01691,-0.93015 4.74674,-1.14395 0.9865,-0.28898 1.07983,-0.27643 0.58438,0.0786 -0.84052,0.60231 -2.06043,1.05639 -4.92908,1.83473 -0.62884,0.17062 -1.18336,0.3221 -1.23227,0.33663 -0.0795,0.0236 -0.0889,-0.017 -0.0889,-0.38512 z"
       id="path30" />
    <path
       style="fill:#000080;stroke-width:0.0508152"
       d="m 293.28016,431.7821 9e-5,-0.15758 0.77484,-0.19744 c 17.90013,-4.56119 35.7474,-11.84271 51.8116,-21.13864 0.51312,-0.29693 0.94325,-0.53987 0.95585,-0.53987 0.0126,0 0.0158,0.0858 0.007,0.19055 l -0.0158,0.19056 -1.65149,0.944 c -16.03059,9.16313 -32.95961,16.00396 -51.20905,20.69301 l -0.6733,0.173 z"
       id="path31" />
    <path
       style="fill:#000080;stroke-width:0.203261"
       d="m 306.21255,408.30206 c 0,-0.28695 2.29878,-1.24879 3.31543,-1.38721 0.81782,-0.11134 0.83537,-0.10244 0.44489,0.22574 -0.93991,0.78995 -3.76032,1.66111 -3.76032,1.16147 z"
       id="path32" />
    <path
       style="fill:#000080;stroke-width:0.203261"
       d="m 320.44081,413.50396 c 2.97895,-1.82293 6.39571,-3.64938 6.46093,-3.45372 0.0425,0.12754 0.27547,0.23646 0.51769,0.24205 0.49681,0.0115 -1.58483,1.12072 -4.99524,2.66185 -2.29648,1.03775 -3.18179,1.28317 -1.98338,0.54982 z"
       id="path33" />
    <path
       style="fill:#000080;stroke-width:0.203261"
       d=""
       id="path34" />
    <path
       style="fill:#000080;stroke-width:0.406522"
       d="m 269.9691,300.17456 c 0.70442,-0.77758 0.78645,-1.68694 0.90757,-10.06142 0.14983,-10.36025 -0.0754,-13.21399 -1.12554,-14.26418 -0.692,-0.692 -0.55177,-0.73344 3.34728,-0.98896 2.23825,-0.14668 4.10417,-0.21822 4.1465,-0.15898 0.0423,0.0592 2.3297,3.53774 5.08303,7.73 2.75333,4.19226 5.22655,7.62228 5.49604,7.62228 0.60652,0 1.0048,-3.08702 0.99653,-7.72391 -0.007,-3.88488 -0.47921,-6.45729 -1.27857,-6.96412 -0.32555,-0.20641 0.38997,-0.34328 1.81425,-0.34705 2.31939,-0.006 2.34479,0.006 1.84266,0.90845 -0.35382,0.63565 -0.59188,4.40344 -0.78038,12.3511 -0.14919,6.29003 -0.44845,11.75306 -0.66502,12.14006 -0.33007,0.5898 -0.88801,0.022 -3.4483,-3.50924 -1.67998,-2.31709 -5.41127,-7.75958 -8.29177,-12.09441 l -5.23725,-7.88151 -0.10828,11.09327 c -0.092,9.429 -0.0144,11.23656 0.51753,12.04836 l 0.62579,0.95509 h -2.30824 -2.30825 z"
       id="path35" />
    <path
       style="fill:#000080;stroke-width:0.406522"
       d="m 303.9269,300.35814 c 0.42477,-0.51106 0.59048,-2.76677 0.69435,-9.45163 0.1746,-11.23788 -0.1357,-15.48799 -1.13076,-15.48799 -1.28267,0 -4.48048,2.83453 -5.76444,5.10958 -0.6853,1.2143 -1.39695,2.20781 -1.58143,2.20781 -0.57001,0 -0.76699,-2.10515 -0.47547,-5.08152 l 0.27872,-2.84565 11.6875,-0.10787 11.6875,-0.10786 -0.006,3.36004 c -0.006,3.50629 -0.2713,5.18938 -0.81864,5.18938 -0.17756,0 -0.71836,-0.81703 -1.20178,-1.81563 -0.90419,-1.86782 -4.93627,-5.90828 -5.89602,-5.90828 -0.78064,0 -1.14069,5.93328 -0.95201,15.68848 0.10591,5.47621 0.32178,8.3888 0.66761,9.00772 l 0.51108,0.91467 h -4.12929 c -3.7928,0 -4.08383,-0.0547 -3.57137,-0.67125 z"
       id="path36" />
    <path
       style="fill:#000080;stroke-width:0.406522"
       d="m 323.31145,301.1605 c -0.62916,-0.16599 -0.62312,-0.24439 0.0723,-0.93984 1.12154,-1.12154 1.29586,-3.25163 1.15142,-14.06941 -0.10442,-7.82084 -0.2498,-9.9398 -0.72083,-10.5066 -0.55873,-0.67234 -0.17064,-0.70213 7.3174,-0.56168 7.23911,0.13579 8.05228,0.22506 9.62154,1.05631 1.972,1.04458 2.55435,1.92185 2.55435,3.84793 0,2.61068 -3.23999,6.4074 -5.46786,6.4074 -1.09698,0 -0.69385,0.83863 1.58779,3.30308 2.29338,2.47712 3.06072,4.22683 3.06476,6.98832 0.003,1.94383 0.61427,3.12382 1.61866,3.12382 1.11929,0 1.38492,0.70113 0.45433,1.19917 -3.22885,1.72802 -7.74637,-2.15047 -7.77096,-6.67173 -0.0266,-4.88669 -4.94964,-8.8858 -6.72127,-5.45984 -1.384,2.67635 -0.47892,11.67157 1.18467,11.77401 0.2552,0.0157 0.0981,0.18579 -0.34904,0.37795 -0.83557,0.35906 -6.3712,0.45459 -7.59729,0.13111 z m 11.26015,-14.94469 c 3.71015,-1.5502 4.15068,-8.35429 0.65784,-10.16051 -1.4569,-0.75339 -4.56322,-0.84143 -5.2557,-0.14896 -0.61372,0.61373 -0.66919,8.98326 -0.067,10.10847 0.51508,0.96242 2.62494,1.05333 4.66486,0.201 z"
       id="path37" />
    <path
       style="fill:#000080;stroke-width:0.406522"
       d="m 358.04834,301.13846 -1.72346,-0.1554 1.11367,-0.95793 c 1.02081,-0.87807 1.12528,-1.24071 1.25295,-4.34963 0.10894,-2.65272 -0.0486,-3.94954 -0.72323,-5.95205 -1.09766,-3.25836 -4.88481,-9.59968 -7.45587,-12.48435 l -1.98499,-2.2271 4.80915,0.0321 c 2.64503,0.0177 4.58048,0.12436 4.30099,0.23714 -0.27948,0.11277 -0.50815,0.58212 -0.50815,1.043 0,1.08572 5.35742,11.33349 5.84079,11.17236 0.68737,-0.22912 5.19489,-8.47159 5.43206,-9.93309 0.18271,-1.12593 0.0666,-1.57764 -0.51464,-2.00268 -0.65632,-0.47991 -0.39224,-0.54882 2.1031,-0.54882 h 2.85367 l -1.66867,1.74152 c -3.57506,3.73113 -7.63037,13.65443 -7.69141,18.82081 -0.0366,3.09401 0.74347,4.99869 2.0898,5.10286 1.07941,0.0835 -3.1988,0.69227 -4.58274,0.65209 -0.67076,-0.0195 -1.99512,-0.10534 -2.94302,-0.19082 z"
       id="path38" />
    <path
       style="fill:#000080;stroke-width:0.0508152"
       d="m 337.29005,286.80113 c -0.001,-0.0838 0.0148,-0.1796 0.0359,-0.21279 0.0587,-0.0923 0.29891,-0.16824 0.53505,-0.16908 0.86813,-0.003 2.00299,-0.63144 3.06203,-1.69544 1.07994,-1.085 1.84078,-2.31359 2.23805,-3.614 0.128,-0.41898 0.13958,-0.52552 0.13804,-1.27038 -0.002,-0.94294 -0.0953,-1.39306 -0.40309,-1.94343 -0.36021,-0.64411 -1.14433,-1.28248 -2.27193,-1.84963 -1.42201,-0.71522 -2.41056,-0.83365 -7.98767,-0.95694 -4.37155,-0.0966 -7.38764,-0.11834 -8.07335,-0.0581 -0.93916,0.0825 -1.08467,0.18212 -0.82131,0.56214 0.1427,0.20592 0.3323,0.66116 0.3323,0.79789 0,0.0454 -0.0812,-0.0799 -0.18054,-0.27836 -0.21264,-0.42505 -0.48596,-0.68082 -0.85562,-0.80067 -0.35695,-0.11573 -0.37722,-0.15095 -0.12319,-0.21404 0.85264,-0.21175 4.39223,-0.37024 8.27348,-0.37047 4.00288,-2.4e-4 6.21141,0.18075 8.10503,0.66419 2.41313,0.61608 3.62618,1.60152 4.09849,3.32948 0.0941,0.34429 0.11138,0.54266 0.11286,1.29579 0.002,0.82875 -0.008,0.92039 -0.1383,1.3466 -0.60418,1.97314 -2.3115,4.02764 -4.01432,4.83062 -0.44646,0.21053 -0.80647,0.30578 -1.33249,0.35255 -0.43011,0.0382 -0.61002,0.11608 -0.68214,0.29513 -0.0409,0.10161 -0.0451,0.098 -0.0473,-0.0411 z"
       id="path39" />
    <path
       style="fill:#000080;stroke-width:0.0508152"
       d="m 354.89042,283.7138 c -1.19652,-2.00151 -3.22613,-4.91502 -4.38701,-6.29755 -0.22732,-0.27073 -0.66958,-0.72806 -0.98281,-1.01631 -1.00465,-0.92453 -1.21523,-1.15389 -1.19777,-1.30464 0.023,-0.19873 0.28477,-0.30223 0.93417,-0.36939 0.63827,-0.066 4.90721,-0.0275 6.5258,0.0588 1.55287,0.0828 2.6932,0.23193 2.6932,0.35211 0,0.0246 -0.17926,0.10439 -0.39836,0.17735 -0.82299,0.27408 -0.96783,0.66717 -0.6347,1.72249 0.0692,0.21921 0.11531,0.40908 0.10247,0.42191 -0.0128,0.0128 -0.0985,-0.17795 -0.19041,-0.42398 -0.27803,-0.74442 -0.22967,-1.20636 0.17043,-1.62801 0.0858,-0.0904 0.14454,-0.17584 0.13055,-0.18984 -0.014,-0.014 -0.2411,-0.0478 -0.50468,-0.0752 -0.5632,-0.0584 -8.56673,-0.18946 -8.61516,-0.14104 -0.0181,0.0181 0.42282,0.54265 0.97991,1.16557 0.55709,0.62291 1.15722,1.30407 1.33364,1.51369 0.55597,0.6606 1.59394,2.07098 2.29994,3.12513 0.94816,1.41574 2.37258,3.75837 2.31826,3.81269 -0.0128,0.0128 -0.27266,-0.39392 -0.57747,-0.90382 z"
       id="path40" />
    <path
       style="fill:#000080;stroke-width:0.0508152"
       d="m 371.78251,276.16804 c 0.0558,-0.0769 0.32033,-0.35652 0.58784,-0.62148 0.2675,-0.26496 0.48636,-0.50152 0.48636,-0.5257 0,-0.0735 -4.92477,-0.0122 -5.11963,0.0637 -0.22877,0.0892 -0.21039,0.21383 0.0648,0.43933 0.27902,0.22863 0.26493,0.28481 -0.0236,0.0939 -0.11519,-0.0762 -0.42369,-0.20943 -0.68555,-0.296 -0.26186,-0.0866 -0.48009,-0.18025 -0.48496,-0.2082 -0.0124,-0.0713 0.36965,-0.16076 0.97852,-0.22899 0.7449,-0.0835 4.70876,-0.12597 5.37914,-0.0577 0.51574,0.0525 0.80591,0.13001 0.80591,0.21513 0,0.0747 -0.30941,0.25894 -0.77047,0.45891 -0.49767,0.21586 -0.9119,0.46919 -1.10735,0.67724 -0.1622,0.17266 -0.23873,0.16562 -0.11106,-0.0102 z"
       id="path41" />
    <path
       style="fill:#000080;stroke-width:0.406522"
       d="m 208.36709,280.66029 c -2.1397,-3.80709 -5.72607,-6.44651 -7.98797,-5.87881 -0.71368,0.17912 -0.98018,0.0781 -0.98018,-0.37152 0,-0.33964 0.0987,-0.61753 0.21929,-0.61753 0.57668,0 8.27305,0.84732 9.43561,1.0388 l 1.32119,0.21761 -0.006,2.7256 c -0.006,2.84924 -0.29791,4.55495 -0.78005,4.55495 -0.15634,0 -0.70639,-0.7511 -1.22234,-1.6691 z"
       id="path42" />
    <path
       style="fill:#000080;stroke-width:0.406522"
       d="m 220.33482,300.07071 c -2.41022,-1.12736 -5.24139,-4.07166 -6.37121,-6.6258 -1.29232,-2.92151 -1.43549,-7.18233 -0.36028,-10.72222 0.76709,-2.5255 1.24195,-3.30251 3.23838,-5.29894 2.52726,-2.52726 5.07289,-3.63132 8.37273,-3.63132 4.31319,0 8.56813,2.97121 10.59508,7.3985 1.63877,3.57942 1.86404,8.40888 0.55501,11.89869 -1.1809,3.14825 -4.24614,6.29938 -7.06047,7.25832 -2.91259,0.99242 -6.49131,0.88181 -8.96924,-0.27723 z m 8.11077,-0.42973 c 2.29511,-0.95896 2.43089,-1.55825 2.59204,-11.44051 0.11942,-7.3233 0.0337,-9.2363 -0.46771,-10.43632 -0.89511,-2.1423 -2.30938,-2.90762 -5.32076,-2.87929 -2.9651,0.0279 -4.95329,0.90813 -5.61088,2.48411 -0.28915,0.693 -0.47028,4.39965 -0.49068,10.04194 -0.0353,9.76165 0.20786,11.13592 2.15801,12.1958 1.37869,0.74931 5.38266,0.76852 7.13998,0.0343 z"
       id="path43" />
    <path
       style="fill:#000080;stroke-width:0.406522"
       d="m 198.52806,301.16226 c -1.2235,-0.14603 -1.44512,-0.31264 -1.27603,-0.95926 0.18602,-0.71131 0.28276,-0.72781 1.06297,-0.18133 1.20285,0.84251 4.08011,0.74833 5.92726,-0.19402 1.78721,-0.91176 3.69364,-2.99871 3.69364,-4.04337 0,-0.82405 1.75681,-2.61909 2.1644,-2.21151 0.1511,0.15111 0.27473,1.89066 0.27473,3.86568 v 3.59094 h -3.3987 c -1.86928,0 -4.2017,0.0697 -5.18315,0.1548 -0.98145,0.0851 -2.45075,0.0753 -3.26512,-0.0219 z"
       id="path44" />
    <path
       style="fill:#000080;stroke-width:0.406522"
       d="m 248.21019,300.97952 c -4.35347,-2.17545 -4.85853,-3.63696 -5.27434,-15.2625 -0.25164,-7.03574 -0.43322,-8.79624 -0.99583,-9.65489 l -0.68808,-1.05013 h 4.2467 4.24669 l -0.59031,1.1833 c -0.4597,0.92149 -0.59113,3.08372 -0.59402,9.77262 -0.004,8.93057 0.16311,10.85682 1.10192,12.71192 0.78688,1.55486 1.73817,1.94303 4.76181,1.94303 2.20028,0 2.83266,-0.16386 3.81168,-0.98765 1.74409,-1.46756 2.16371,-3.37547 2.42415,-11.02199 0.26472,-7.77235 -0.0528,-12.09302 -0.95492,-12.99517 -0.53707,-0.53707 -0.31353,-0.60535 1.96373,-0.59984 1.45652,0.004 2.34644,0.148 2.05422,0.33348 -0.99567,0.63197 -1.31377,3.17722 -1.31377,10.51206 0,9.1833 -0.31537,10.82522 -2.51989,13.11947 -3.38429,3.52204 -7.29041,4.18967 -11.67974,1.99629 z"
       id="path45" />
    <path
       style="fill:#000080;stroke-width:0.10163"
       d="m 356.92431,380.22426 c 4.62087,-3.93592 9.30594,-8.20558 15.7513,-14.35464 5.14348,-4.90704 8.8138,-8.09522 9.48029,-8.23494 0.12577,-0.0264 0.34094,-0.0712 0.47817,-0.0996 0.39028,-0.0807 0.78946,-0.68673 0.84703,-1.28589 l 0.0496,-0.51589 -0.3952,0.0464 c -0.21736,0.0255 -0.48431,0.085 -0.59322,0.13226 -0.4065,0.17629 0.30424,-0.61786 3.09448,-3.4576 1.53782,-1.56511 3.22655,-3.36004 3.75273,-3.98873 0.52618,-0.6287 0.97381,-1.12596 0.99474,-1.10503 0.0209,0.0209 -0.36412,0.5898 -0.85565,1.26416 -0.49154,0.67436 -1.15243,1.64169 -1.46865,2.14963 -0.31622,0.50794 -0.59062,0.87856 -0.60978,0.82361 -0.15649,-0.4488 -3.04907,2.3747 -3.68137,3.59344 -0.18423,0.35511 -0.13969,0.46531 0.15672,0.3878 0.2668,-0.0698 2.26974,-1.9875 2.79453,-2.67565 0.20786,-0.27256 0.39885,-0.47464 0.42443,-0.44906 0.10868,0.10868 -0.60284,0.98663 -1.80827,2.23125 -0.82332,0.85008 -1.4423,1.5918 -1.70785,2.04648 -0.4369,0.74807 -0.67882,0.93159 -1.52191,1.15449 -0.27341,0.0723 -0.47748,0.20126 -0.55897,0.35329 -0.0706,0.1317 -0.37989,0.43379 -0.68732,0.67132 -0.76056,0.58761 -5.70068,5.54882 -6.49855,6.52629 -0.53398,0.65417 -0.69296,0.78764 -0.93819,0.78764 -0.46574,0 -1.01831,0.3417 -1.64206,1.01542 -0.78777,0.85089 -0.76947,1.15428 0.0523,0.86804 0.24127,-0.084 0.47747,-0.15345 0.52488,-0.15427 0.0474,-8.1e-4 -0.32161,0.31371 -0.82006,0.69893 -0.49844,0.38522 -1.61197,1.38129 -2.47451,2.21349 -2.54354,2.45405 -5.44106,4.90452 -7.86935,6.6552 -1.22826,0.88551 -4.60035,3.13488 -4.69836,3.13405 -0.043,-3.6e-4 0.14957,-0.19473 0.42805,-0.43193 z"
       id="path46" />
    <path
       style="fill:#000080;stroke-width:0.10163"
       d="m 327.19923,410.09359 c 0,-0.0886 1.33347,-0.94846 3.25218,-2.09706 2.57417,-1.54098 3.78296,-2.35892 4.33747,-2.93498 0.33135,-0.34422 0.53538,-0.46413 0.90825,-0.53379 0.56616,-0.10577 0.80321,-0.29388 0.95679,-0.75924 0.21519,-0.65202 2.16079,-2.11624 8.0194,-6.03524 7.13224,-4.77097 11.78252,-8.22515 17.43597,-12.95127 5.65241,-4.72525 10.41405,-9.15081 16.26231,-15.1145 6.09419,-6.21447 12.92513,-14.33945 13.89057,-16.52199 0.24927,-0.56351 0.18375,-0.9452 -0.16225,-0.9452 -0.54487,0 -1.74445,0.98192 -6.52846,5.34386 -4.80844,4.38423 -7.91713,7.02904 -10.14858,8.6342 -1.18888,0.85521 -3.91556,2.11845 -4.06182,1.88179 -0.08,-0.12944 0.70053,-1.05538 1.15532,-1.37055 0.27681,-0.19184 0.60058,-0.30489 1.0121,-0.35341 0.69482,-0.0819 0.99754,-0.25937 2.31596,-1.35754 1.27585,-1.0627 2.55772,-2.293 3.67796,-3.52998 1.2722,-1.40476 1.82572,-2.16751 1.96004,-2.70091 0.13914,-0.5526 0.33849,-0.73131 0.94139,-0.84394 0.58682,-0.10963 0.84842,-0.34436 1.35142,-1.21263 0.24648,-0.42548 0.84244,-1.12891 1.63506,-1.92994 1.32315,-1.33719 1.77651,-1.91342 1.99694,-2.53821 0.3059,-0.86701 1.25355,-2.25555 4.38523,-6.42545 2.59766,-3.45886 4.36536,-5.95701 6.40539,-9.05225 8.05485,-12.22124 15.16939,-26.10681 18.85953,-36.80849 l 0.23655,-0.68601 h 4.75156 c 2.61336,0 4.75156,0.0367 4.75156,0.0815 0,0.10487 -1.60143,4.69612 -2.48844,7.13428 -4.74106,13.03186 -9.39368,22.4772 -16.44523,33.3856 -9.68552,14.98305 -21.47225,28.52928 -35.33699,40.61204 -11.13482,9.70372 -24.31018,18.79936 -37.70489,26.02967 -4.04984,2.18606 -7.62229,3.87316 -7.62229,3.59966 z"
       id="path47" />
    <path
       style="fill:#000080;stroke-width:0.10163"
       d="m 373.79935,367.65229 c -0.036,-0.0582 -0.16557,-0.10952 -0.28804,-0.11409 -0.15071,-0.006 -0.0455,-0.0892 0.32549,-0.2585 0.74545,-0.3402 2.03112,-1.23379 3.72649,-2.59005 2.39265,-1.91407 4.04329,-3.35957 8.6188,-7.54767 1.21379,-1.11102 2.22933,-1.9976 2.25676,-1.97016 0.0498,0.0498 -5.3073,5.1351 -7.42629,7.0496 -4.04356,3.65333 -6.95639,5.84642 -7.21321,5.43087 z"
       id="path48" />
  </g>
</svg>
