<?xml version="1.0" encoding="UTF-8" standalone="no"?>
<!-- Created with Inkscape (http://www.inkscape.org/) -->

<svg
   version="1.1"
   id="svg1"
   width="508"
   height="472"
   viewBox="0 0 508 472"
   sodipodi:docname="logo2.svg"
   inkscape:version="1.3.2 (091e20e, 2023-11-25, custom)"
   xmlns:inkscape="http://www.inkscape.org/namespaces/inkscape"
   xmlns:sodipodi="http://sodipodi.sourceforge.net/DTD/sodipodi-0.dtd"
   xmlns="http://www.w3.org/2000/svg"
   xmlns:svg="http://www.w3.org/2000/svg">
  <defs
     id="defs1" />
  <sodipodi:namedview
     id="namedview1"
     pagecolor="#ffffff"
     bordercolor="#000000"
     borderopacity="0.25"
     inkscape:showpageshadow="2"
     inkscape:pageopacity="0.0"
     inkscape:pagecheckerboard="0"
     inkscape:deskcolor="#d1d1d1"
     showgrid="false"
     inkscape:zoom="1.7394068"
     inkscape:cx="287.74177"
     inkscape:cy="233.70036"
     inkscape:window-width="1920"
     inkscape:window-height="1017"
     inkscape:window-x="-8"
     inkscape:window-y="-8"
     inkscape:window-maximized="1"
     inkscape:current-layer="g1"
     inkscape:export-bgcolor="#ffffff00" />
  <g
     inkscape:groupmode="layer"
     inkscape:label="Image"
     id="g1">
    <g
       id="g2"
       transform="translate(-0.57490864,-1.1498173)"
       style="display:inline"
       sodipodi:insensitive="true">
      <path
         style="display:inline;fill:#b9b9b9;fill-opacity:1"
         d="m 272.66401,437.26406 c 71.03329,-10.10093 131.41757,-56.25649 158.90091,-121.45811 5.20417,-12.34642 8.67311,-23.87827 12.20738,-40.58123 3.13387,-14.81066 4.40198,-48.1269 2.4433,-64.19127 -6.22904,-51.08843 -24.84216,-88.77157 -61.18383,-123.869615 -29.19556,-28.19648 -66.7655,-47.026008 -107.88195,-54.06893 -12.43009,-2.129176 -39.46539,-2.876953 -52,-1.438282 C 146.52735,40.68058 82.621369,93.667395 56.616156,171.39412 c -1.94966,5.82731 -3.3377,11.09809 -3.08453,11.71285 0.25548,0.6204 0.51357,0.45032 0.58001,-0.38225 0.0658,-0.825 1.47871,-4.2 3.1397,-7.5 1.66098,-3.3 2.72288,-5.1 2.35976,-4 -5.25726,15.92614 -9.48015,41.58405 -9.43087,57.30122 0.0381,12.15606 1.46341,10.27015 2.41323,-3.19311 0.81902,-11.60918 2.79736,-25.37623 5.10386,-35.51711 2.38847,-10.50133 2.80056,-8.09698 0.51309,2.99361 -2.65547,12.87473 -4.08605,26.93743 -3.92936,38.62598 l 0.13122,9.78941 1.26228,-15.06001 c 1.67661,-20.00337 2.87904,-27.42663 6.98188,-43.1031 4.33266,-16.55459 7.86314,-25.44651 16.60891,-41.83145 24.929354,-46.704385 70.143014,-81.618057 121.575304,-93.879594 18.84608,-4.492935 24.74468,-5.139984 44.46793,-4.877925 15.25123,0.202639 21.00385,0.712761 31.5,2.793311 60.87229,12.066126 108.78196,49.186553 135.39168,104.901528 6.76907,14.17297 12.66239,33.16843 13.97894,45.05724 2.45746,22.1914 3.05745,32.20416 2.69652,45 -0.62134,22.02835 -3.0559,35.03837 -11.22776,60 -5.25687,16.05757 -21.46197,43.72805 -30.95196,52.851 -2.77539,2.66805 -4.42529,4.51791 -3.66644,4.1108 0.8708,-0.46716 1.23044,-0.29232 0.975,0.474 -0.2226,0.66781 -0.77088,1.13957 -1.2184,1.04836 -0.44751,-0.0912 -4.48626,3.37327 -8.975,7.69884 -4.48873,4.32558 -10.41133,9.80413 -13.16133,12.17457 l -5,4.30989 4.9633,-3.33373 c 2.72981,-1.83355 6.85414,-5.24825 9.16517,-7.58822 2.31103,-2.33997 4.37561,-3.73326 4.58797,-3.09619 0.21235,0.63706 4.83427,-3.07342 10.27092,-8.24551 8.32743,-7.92221 9.39782,-8.68821 6.79381,-4.86184 -9.86509,14.49595 -33.06388,35.34384 -50.53138,45.41069 -2.61262,1.5057 -4.50175,3.13966 -4.19807,3.63103 0.30369,0.49137 -0.0466,0.66363 -0.77848,0.38279 -0.73184,-0.28084 -2.21772,0.19914 -3.30193,1.06662 -1.90942,1.52772 -1.90067,1.543 0.27869,0.48688 1.2375,-0.59969 2.25,-0.87597 2.25,-0.61395 0,0.26202 -3.7125,2.51955 -8.25,5.01674 -11.34535,6.24384 -8.92344,5.73277 4.46637,-0.94249 43.63051,-21.75125 79.31495,-60.62046 93.93247,-102.31576 11.20121,-31.95052 13.69191,-44.11783 14.84568,-72.52237 0.48832,-12.02182 1.10786,-22.07787 1.37677,-22.34677 0.96732,-0.96732 -0.22552,41.37335 -1.37213,48.70462 -3.94105,25.19871 -13.21505,51.7619 -25.0125,71.64248 -2.89091,4.87163 -5.27055,9.40023 -5.28809,10.06353 -0.0176,0.66331 -0.4069,0.97425 -0.86524,0.69098 -0.45833,-0.28326 -0.88958,-0.0385 -0.95833,0.54399 -0.0688,0.58246 -0.18125,1.48965 -0.25,2.01597 -0.0688,0.52633 -1.025,1.6847 -2.125,2.57416 -1.1,0.88946 -1.33033,1.26604 -0.51184,0.83684 2.06823,-1.08454 -3.59488,6.46043 -12.76822,17.01113 -25.89536,29.78352 -62.80942,51.95878 -101.71994,61.10588 -15.24566,3.58396 -24.30767,4.71285 -44.5,5.54358 l -18.5,0.7611 21.5,-0.37219 c 11.825,-0.2047 23.525,-0.5828 26,-0.84023 3.20283,-0.33313 2.62631,-0.074 -2,0.89895 -3.575,0.75184 -10.87862,1.68462 -16.23027,2.07283 -5.35164,0.38821 -9.48758,1.0985 -9.19098,1.57842 0.8142,1.3174 13.66716,1.01427 24.93544,-0.58808 z m 8.23581,-5.20162 c 0.6875,-0.27741 1.8125,-0.27741 2.5,0 0.6875,0.27741 0.125,0.50439 -1.25,0.50439 -1.375,0 -1.9375,-0.22698 -1.25,-0.50439 z m 77.21922,-31.02038 c 1.90807,-1.54954 7.75807,-6.2555 13,-10.4577 9.12235,-7.31294 17.963,-15.98001 28.41759,-27.85964 4.02467,-4.57326 4.27384,-4.74176 1.47876,-1 -8.42926,11.28424 -30.63473,31.93556 -42.86557,39.86544 l -3.5,2.26923 z m 19.53078,-37.31734 c 2.14824,-2.2 4.1309,-4 4.4059,-4 0.275,0 -1.25766,1.8 -3.4059,4 -2.14824,2.2 -4.1309,4 -4.4059,4 -0.275,0 1.25766,-1.8 3.4059,-4 z m 8,-9 c 0.99549,-1.1 2.03498,-2 2.30998,-2 0.275,0 -0.31449,0.9 -1.30998,2 -0.99549,1.1 -2.03498,2 -2.30998,2 -0.275,0 0.31449,-0.9 1.30998,-2 z m 18.5,1.62244 c 0,-0.20765 0.7875,-0.99515 1.75,-1.75 1.58606,-1.24387 1.62143,-1.2085 0.37756,0.37756 -1.30637,1.66575 -2.12756,2.19548 -2.12756,1.37244 z m 3,-4 c 0,-0.20765 0.7875,-0.99515 1.75,-1.75 1.58606,-1.24387 1.62143,-1.2085 0.37756,0.37756 -1.30637,1.66575 -2.12756,2.19548 -2.12756,1.37244 z M 60.228766,180.14139 c 0.048,-1.16495 0.28494,-1.4019 0.60417,-0.60417 0.28887,0.72187 0.25334,1.58437 -0.0789,1.91667 -0.3323,0.33229 -0.56865,-0.25834 -0.52522,-1.3125 z m 2.00665,-6.41667 c -0.0302,-0.825 0.38125,-2.175 0.9144,-3 1.18132,-1.82797 1.18132,-0.24909 0,2.5 -0.56668,1.31874 -0.87815,1.48906 -0.9144,0.5 z M 223.89982,433.03539 c -0.9625,-0.25152 -2.5375,-0.25152 -3.5,0 -0.9625,0.25153 -0.175,0.45733 1.75,0.45733 1.925,0 2.7125,-0.2058 1.75,-0.45733 z m -6.48097,-0.96661 c -0.67703,-0.27392 -2.02703,-0.29059 -3,-0.0371 -0.97297,0.25354 -0.41903,0.47766 1.23097,0.49804 1.65,0.0204 2.44606,-0.18706 1.76903,-0.46099 z m 52.7572,-1.39017 c 9.67395,-1.19427 25.74381,-4.72626 27.97377,-6.14833 1.17785,-0.75113 1.09383,-0.82807 -0.39123,-0.35825 -1.04018,0.32907 -7.56518,1.77468 -14.5,3.21247 -9.50655,1.97097 -17.16045,2.78505 -31.10877,3.30878 l -18.5,0.69463 14.02623,0.1684 c 7.71443,0.0926 17.83943,-0.30234 22.5,-0.8777 z m -74.85038,-2.52119 c -27.93985,-8.25981 -56.44769,-23.80843 -78.13226,-42.61456 -18.242145,-15.82067 -36.356813,-39.16144 -48.029984,-61.8867 -2.85161,-5.5515 -5.40012,-9.87826 -5.66336,-9.61502 -0.61899,0.61898 5.23963,12.23483 11.61348,23.026 14.986325,25.37237 38.457054,49.89874 63.148214,65.98843 10.65751,6.94483 27.08653,15.62887 37.38806,19.76254 8.84796,3.5504 22.89213,7.75397 26,7.78207 1.1,0.01 -1.74587,-1.08929 -6.32415,-2.44276 z m 10.82415,-4.4327 c -1.375,-0.44035 -3.4,-0.80064 -4.5,-0.80064 -1.58367,0 -1.47958,0.16667 0.5,0.80064 1.375,0.44035 3.4,0.80064 4.5,0.80064 1.58367,0 1.47958,-0.16667 -0.5,-0.80064 z m -16.5,-4.45504 c -5.5,-1.82216 -14.63857,-5.40065 -20.30793,-7.9522 -5.66936,-2.55156 -10.80139,-4.33422 -11.40451,-3.96147 -0.64095,0.39614 -0.81299,0.21888 -0.41406,-0.42661 0.37538,-0.60738 -0.2005,-1.57691 -1.27975,-2.15451 -2.55112,-1.36532 -3.38503,-1.33049 -2.49826,0.10434 0.44563,0.72104 0.27393,0.88282 -0.45729,0.4309 -0.64395,-0.39798 -0.92377,-1.12335 -0.62182,-1.61192 0.30196,-0.48857 -0.9282,-1.64752 -2.73368,-2.57543 -1.80549,-0.92792 -5.7577,-3.34372 -8.7827,-5.36845 -6.82868,-4.57065 -8,-5.26078 -8,-4.71352 0,0.23876 3.4875,2.83055 7.75,5.75953 4.2625,2.92898 8.27983,6.05211 8.92739,6.94029 0.64757,0.88817 2.89757,2.31917 5,3.18 2.10244,0.86082 7.84922,3.24347 12.77063,5.29476 10.48804,4.37152 28.39797,10.47483 30.55198,10.41144 0.825,-0.0243 -3,-1.53499 -8.5,-3.35715 z m 120.5,-10.54496 c 1.82797,-1.18132 0.24909,-1.18132 -2.5,0 -1.31874,0.56668 -1.48906,0.87815 -0.5,0.9144 0.825,0.0302 2.175,-0.38124 3,-0.9144 z m -144,-9 c -1.925,-1.05389 -3.95,-1.91617 -4.5,-1.91617 -0.55,0 0.575,0.86228 2.5,1.91617 1.925,1.05389 3.95,1.91617 4.5,1.91617 0.55,0 -0.575,-0.86228 -2.5,-1.91617 z M 52.832936,185.53722 c -0.31923,-0.79773 -0.55619,-0.56078 -0.60417,0.60417 -0.0434,1.05416 0.19293,1.64479 0.52522,1.3125 0.33229,-0.3323 0.36782,-1.1948 0.0789,-1.91667 z"
         id="path1"
         inkscape:label="vector"
         sodipodi:nodetypes="ssssssssssscssssscsssssssssssssssscssssssssssssssssssssssssssscssssssssssssssscssssssssssssssssssscsccccsscsssssssssssssscsssssssssssssssssssssssssssssssssssssssssssccss" />
    </g>
    <path
       style="fill:#000080;stroke-width:0.574909"
       d="m 248.64799,436.73318 c 0,-0.36574 0.32338,-0.67009 0.71863,-0.67634 0.39525,-0.006 4.46623,-0.39255 9.04661,-0.85847 10.04055,-1.02132 18.40528,-2.49754 18.40528,-3.24818 0,-0.30202 -0.19403,-0.43725 -0.43118,-0.30052 -0.23715,0.13672 -4.95859,0.38694 -10.49208,0.55602 -8.24876,0.25207 -9.02539,0.21546 -4.31182,-0.20323 44.45079,-3.94839 87.94361,-23.79493 119.51214,-54.53548 10.37978,-10.10755 23.92757,-26.13994 23.92757,-28.31578 0,-0.4762 0.50275,-1.3208 1.11723,-1.87689 0.61448,-0.5561 1.2823,-1.76264 1.48405,-2.68121 0.20175,-0.91857 0.59665,-1.52809 0.87755,-1.35448 0.2809,0.17361 0.87944,-0.5668 1.33009,-1.64535 0.45064,-1.07855 2.36667,-4.64623 4.25785,-7.92817 13.87078,-24.07139 24.24889,-55.06785 26.25147,-78.40566 0.65203,-7.59862 1.36364,-38.51958 0.94601,-41.10597 l -0.41774,-2.58709 -0.37969,2.58709 c -0.20883,1.4229 -0.64577,8.27868 -0.97098,15.23508 -1.48942,31.85955 -3.21298,41.60412 -12.06256,68.19852 -4.82095,14.48774 -8.90539,24.15323 -14.03536,33.21349 -17.40779,30.74468 -43.66279,56.35999 -76.45907,74.59616 -8.68092,4.82697 -13.87678,6.83007 -6.3804,2.45975 2.20838,-1.28746 4.10148,-2.581 4.20687,-2.87454 0.10541,-0.29353 0.55815,-0.5337 1.00609,-0.5337 0.44796,0 0.81446,-0.35132 0.81446,-0.78071 0,-0.42939 3.42789,-2.99843 7.61754,-5.70898 10.9193,-7.06439 21.80551,-15.97159 32.08075,-26.2488 7.80701,-7.8085 16.06785,-17.62315 16.06785,-19.09011 0,-1.10179 -1.20362,-0.17719 -8.33832,6.40537 -4.10941,3.7914 -8.56837,7.41333 -9.90877,8.04872 -3.04162,1.44183 -3.46988,1.45045 -2.19726,0.0442 0.55302,-0.61108 1.33428,-0.98488 1.73614,-0.83067 0.86805,0.3331 7.78494,-6.41083 7.78494,-7.59027 0,-0.449 0.39618,-0.81637 0.88041,-0.81637 0.48423,0 1.04589,-0.43125 1.24815,-0.95833 0.20226,-0.52708 1.11385,-1.62659 2.02574,-2.44336 0.91191,-0.81677 1.71542,-1.88184 1.7856,-2.36683 0.0702,-0.485 1.82502,-3.07209 3.89966,-5.74909 8.71125,-11.24053 17.84599,-26.98391 23.40028,-40.32951 4.43621,-10.65915 9.93819,-30.53016 11.82999,-42.72535 3.52672,-22.73441 2.04844,-61.12938 -3.16532,-82.21194 -6.26774,-25.34448 -19.8608,-51.80835 -37.75874,-73.5112 -6.00443,-7.28091 -18.15531,-19.226242 -25.70484,-25.270011 -23.03568,-18.441192 -49.34793,-30.917254 -78.87222,-37.397583 -15.00659,-3.29382 -17.57247,-3.524041 -39.27151,-3.523604 -18.30842,3.68e-4 -20.3651,0.10207 -26.73325,1.321945 -22.39337,4.289649 -39.17848,9.870598 -56.34105,18.733068 -39.11963,20.200741 -69.055648,52.031535 -87.434331,92.968425 -7.589081,16.90401 -13.306665,39.33468 -15.44659,60.59857 -0.50914,5.0592 -1.161055,11.52692 -1.448701,14.37272 -0.448969,4.44185 -0.48338,3.91295 -0.243123,-3.73691 0.347215,-11.05541 1.480003,-21.28089 3.694294,-33.34777 1.915829,-10.4404 1.904982,-10.34529 1.179706,-10.34529 -1.266664,0 -5.16013,21.12157 -6.623522,35.9318 -1.812561,18.34396 -1.59792,16.86959 -2.176089,14.94762 -0.661506,-2.19899 -0.09642,-15.09608 1.055934,-24.09983 1.614508,-12.61473 5.214122,-29.98393 7.9923,-38.56521 l 0.372252,-1.14982 -0.971675,1.14982 c -0.534422,0.6324 -1.719527,2.70207 -2.633569,4.59927 -2.392455,4.96582 -2.048508,2.70508 0.896554,-5.89298 8.023471,-23.42438 19.162086,-44.02052 34.585607,-63.95137 6.373302,-8.23583 23.166773,-25.199094 31.556623,-31.875686 29.1814,-23.222396 63.88083,-37.766981 100.25201,-42.021546 8.48914,-0.993028 28.48549,-1.120648 39.76705,-0.253801 38.06767,2.925029 79.32891,19.994358 109.88168,45.45686 20.828,17.357936 38.67508,38.802893 50.11862,60.222243 11.195,20.95416 17.74796,41.79817 21.71549,69.07389 2.20103,15.13145 1.74501,44.40976 -0.98253,63.08248 -2.56024,17.52735 -9.60487,39.54046 -18.17264,56.78597 -29.30606,58.98829 -85.49035,99.82429 -151.49087,110.10698 -9.10081,1.41788 -25.47127,2.20706 -25.47127,1.22791 z m 34.20706,-5.83915 c -0.19542,-0.3162 -0.84219,-0.57491 -1.43727,-0.57491 -0.59508,0 -1.24185,0.25871 -1.43727,0.57491 -0.20786,0.33632 0.38861,0.57491 1.43727,0.57491 1.04866,0 1.64513,-0.23859 1.43727,-0.57491 z m 76.17882,-31.08627 c 8.0728,-5.56126 16.44095,-12.88116 28.17261,-24.64351 10.70834,-10.73636 16.42119,-17.28362 15.08092,-17.28362 -0.27915,0 -2.8848,2.68069 -5.79033,5.9571 -10.48448,11.82278 -22.60724,22.82342 -42.04019,38.14886 -0.48844,0.38518 -0.61075,0.70857 -0.2718,0.71863 0.33895,0.0101 2.5209,-1.2938 4.84879,-2.89746 z m 46.78551,-45.64381 c 1.34585,-2.05402 1.15147,-2.26948 -0.79624,-0.88259 -1.83635,1.3076 -2.23689,2.29963 -0.92849,2.29963 0.43794,0 1.21406,-0.63767 1.72473,-1.41704 z m 3.00529,-4.06253 c 1.38302,-2.11077 0.69247,-2.2599 -1.22019,-0.26352 -1.27099,1.32664 -1.4284,1.71873 -0.68997,1.71873 0.52616,0 1.38573,-0.65484 1.91016,-1.45521 z M 60.652862,179.3715 c 0,-0.7905 -0.258709,-1.43728 -0.574909,-1.43728 -0.3162,0 -0.574909,0.64678 -0.574909,1.43728 0,0.7905 0.258709,1.43727 0.574909,1.43727 0.3162,0 0.574909,-0.64677 0.574909,-1.43727 z m 2.313864,-7.51124 c 0.701283,-1.84452 0.718494,-3.12457 0.04201,-3.12457 -0.480894,0 -1.780967,3.00033 -1.780967,4.11014 0,1.08322 1.214,0.39517 1.738957,-0.98557 z"
       id="path2" />
    <path
       style="fill:#000080;stroke-width:1.39123"
       d="m 282.49681,366.8493 c -8.49816,-3.79324 -15.9992,-15.27319 -15.9992,-24.48598 0,-8.22117 5.83956,-16.72278 14.53469,-21.16045 4.60244,-2.34895 6.85513,-2.63344 13.91231,-1.75692 16.4023,2.03721 17.89077,1.76091 26.64092,-4.94543 12.55051,-9.61901 31.71607,-29.02646 37.18923,-37.65857 8.38649,-13.22699 11.04291,-23.32535 10.38872,-39.49236 -0.6581,-16.26344 -4.34594,-25.74685 -13.80083,-35.4895 -8.72806,-8.99364 -18.99053,-13.12949 -32.52008,-13.1058 -19.91953,0.0349 -31.00852,8.12114 -41.73499,30.43375 -6.22307,12.94486 -7.90083,17.56446 -20.23814,55.72488 -12.52021,38.72607 -22.97928,54.19757 -43.7335,64.69235 -8.96552,4.5336 -10.49743,4.86264 -22.21869,4.77275 -19.25822,-0.1476 -33.11904,-6.8074 -40.54638,-19.48117 -5.21309,-8.89547 -6.10229,-13.29077 -7.32027,-36.18359 -1.06152,-19.95207 -1.32872,-21.35186 -5.45154,-28.55778 -9.33405,-16.31424 -8.55908,-28.0753 3.65339,-55.44404 15.01028,-33.63877 35.58567,-68.02973 50.82141,-84.946 9.95279,-11.05057 11.02761,-14.65618 5.22772,-17.53667 -4.25568,-2.11357 -10.16123,-0.43837 -17.80425,5.05044 -8.04102,5.77461 -13.63244,6.78024 -15.74556,2.83182 -1.25854,-2.35161 -1.20999,-3.51167 0.21948,-5.24366 3.15834,-3.82667 13.36502,-7.47382 23.23023,-8.300879 8.49208,-0.711942 10.12295,-0.418508 15.63875,2.813978 3.38689,1.984851 9.58709,4.335911 13.7782,5.224581 4.19113,0.8887 9.86648,2.75173 12.61185,4.14007 6.46282,3.26828 21.09219,15.5033 24.18958,20.23052 2.34701,3.58202 2.31815,3.77162 -1.09439,7.18412 l -3.505,3.50502 -3.78941,-4.02448 c -2.08418,-2.21346 -4.99491,-6.71063 -6.46828,-9.99376 -3.49066,-7.77821 -12.20042,-14.20358 -19.25332,-14.20358 -3.67475,0 -5.48329,0.71655 -6.14485,2.43465 -0.51563,1.33906 -1.54073,15.89484 -2.278,32.3462 -0.73729,16.45131 -2.27806,36.17205 -3.42394,43.82385 -1.14592,7.65179 -2.71526,18.60774 -3.48746,24.34659 -3.84109,28.54685 -8.0958,41.23717 -16.53703,49.32437 -2.07596,1.98891 -8.73135,5.65995 -14.78976,8.1579 -9.6953,3.99746 -11.41071,5.25762 -14.31529,10.51616 -4.52291,8.18838 -5.559,21.65175 -2.31908,30.13529 3.30594,8.65652 8.1727,14.04084 16.50966,18.2655 6.23152,3.15775 8.29981,3.50017 17.81484,2.94935 27.2477,-1.57735 43.52625,-19.039 56.14091,-60.22115 14.61294,-47.70574 18.40374,-57.44895 27.92288,-71.76779 3.46736,-5.21566 8.79913,-11.45896 11.84837,-13.87402 14.90474,-11.80476 38.65904,-13.9665 56.75074,-5.16454 3.54652,1.72545 10.56513,7.21139 15.5969,12.19093 21.2346,21.01423 25.21048,49.54268 10.91975,78.35347 -6.24915,12.59859 -13.55876,21.38936 -32.78144,39.42406 -19.08149,17.90223 -21.58631,21.31587 -24.01759,32.73148 -3.92676,18.43733 -19.3269,28.08272 -34.22229,21.43404 z M 178.39235,258.99571 c 2.42646,-1.47957 5.96199,-5.39005 7.85674,-8.69001 6.13377,-10.68293 17.28376,-46.68544 19.77123,-63.83996 2.88997,-19.93017 4.47816,-68.65 2.28211,-70.00721 -3.9126,-2.41813 -22.92629,23.39808 -39.50861,53.64355 -8.97801,16.37553 -10.86603,21.19142 -13.27366,33.85789 -0.72722,3.8259 -3.03828,13.40824 -5.13567,21.29406 -5.37516,20.20954 -3.16334,28.01872 9.5744,33.80392 7.30483,3.31769 12.92142,3.29872 18.43346,-0.0622 z"
       id="path3" />
    <path
       style="fill:#000080;stroke-width:0.813044"
       d=""
       id="path7" />
    <path
       style="fill:#000080;stroke-width:0.10163"
       d="m 167.08046,418.07168 c -11.16111,-5.28535 -23.53876,-12.23179 -31.86115,-17.88074 -8.10783,-5.50331 -16.17025,-11.95994 -23.88315,-19.12635 -3.87127,-3.59697 -10.36647,-10.2508 -14.187873,-14.53437 -8.370628,-9.383 -16.200736,-19.97506 -22.163222,-29.98099 -4.338407,-7.28048 -9.119523,-16.22105 -11.070378,-20.70134 -0.76802,-1.76382 -1.141968,-3.0047 -0.851363,-2.8251 0.408991,0.25277 2.696538,4.20773 5.231108,9.04411 4.457959,8.50651 7.739737,14.03114 12.798691,21.54565 10.545654,15.66439 23.318947,30.32766 35.731077,41.01798 15.33162,13.20482 33.54641,24.60415 53.17773,33.28014 1.57931,0.69797 2.96293,1.31057 3.07473,1.36133 0.1317,0.0598 -0.40502,0.0935 -1.52446,0.0957 l -1.72772,0.003 z"
       id="path9" />
    <path
       style="fill:#000080;stroke-width:0.10163"
       d=""
       id="path10" />
    <path
       style="fill:#000080;stroke-width:0.10163"
       d="m 196.35003,421.24484 c -4.5008,-1.05776 -17.09239,-5.36932 -26.06821,-8.92618 -4.06951,-1.61263 -16.15509,-6.64302 -17.2329,-7.17286 -1.54102,-0.75755 -2.83784,-1.65402 -3.75379,-2.59492 -1.64022,-1.68491 -3.84821,-3.38315 -9.9702,-7.66839 -2.78793,-1.95148 -5.56425,-3.98871 -6.34149,-4.65329 -0.19564,-0.16728 -0.3204,-0.34011 -0.27725,-0.38405 0.18368,-0.18706 1.27017,0.46253 6.01937,3.59885 4.92815,3.25449 7.78376,5.03058 10.31549,6.41587 1.38544,0.75807 2.55393,1.61653 2.848,2.09236 0.18568,0.30043 0.19738,0.39094 0.0948,0.73332 -0.15952,0.53246 0.0558,1.03166 0.6217,1.44163 0.78049,0.56539 1.06258,0.28136 0.54889,-0.55266 -0.13771,-0.22359 -0.25062,-0.51537 -0.25091,-0.64841 -4.8e-4,-0.22526 0.0298,-0.23847 0.44015,-0.19222 0.45319,0.0511 2.16621,0.80921 2.7209,1.20419 0.47038,0.33493 0.90365,0.98883 0.90365,1.36379 0,0.17866 -0.0739,0.47294 -0.16418,0.65394 -0.23083,0.46272 -0.0647,0.61348 0.42094,0.38192 0.33374,-0.15915 0.41846,-0.16005 1.14436,-0.0121 1.58212,0.32253 6.05217,1.96827 9.37171,3.45038 6.63674,2.96317 14.93589,6.22435 21.59647,8.4864 5.38805,1.82988 8.69356,3.13426 7.92717,3.12813 -0.16769,-10e-4 -0.57929,-0.0669 -0.91467,-0.14574 z"
       id="path11" />
    <path
       style="fill:#000080;stroke-width:0.10163"
       d="m 167.18209,400.19623 c -1.0893,-0.36432 -3.84733,-1.76146 -5.05892,-2.5627 -1.46317,-0.96761 -1.4253,-1.16946 0.10827,-0.577 2.11751,0.81804 5.6609,2.80888 5.85788,3.29122 0.0691,0.16926 0.0347,0.1635 -0.90723,-0.15152 z"
       id="path12" />
    <path
       style="fill:#000080;stroke-width:0.10163"
       d="m 199.93115,429.28116 c -3.48082,-0.54178 -11.91307,-2.98214 -19.13058,-5.53655 -3.64255,-1.28916 -6.24772,-2.31327 -9.588,-3.76907 l -1.25431,-0.54667 1.61001,-0.0508 1.61002,-0.0508 3.45543,1.3863 c 6.01244,2.41216 11.31979,4.28119 17.53125,6.1738 4.36595,1.33029 6.60479,2.11028 6.90725,2.40642 0.18566,0.18179 0.10191,0.18086 -1.14107,-0.0126 z"
       id="path13" />
    <path
       style="fill:#000080;stroke-width:0.10163"
       d="m 205.19188,423.27461 c -1.92197,-0.23052 -5.03071,-1.07286 -5.03071,-1.3631 0,-0.14237 1.34782,-0.1121 2.45764,0.0552 1.78825,0.26955 4.52788,1.0703 4.39538,1.28469 -0.0533,0.0862 -1.1781,0.10048 -1.82231,0.0232 z"
       id="path14" />
    <path
       style="fill:#000080;stroke-width:0.10163"
       d=""
       id="path15" />
    <path
       style="fill:#000080;stroke-width:0.10163"
       d="m 214.33862,431.30646 c -1.07505,-0.10845 -1.09673,-0.2643 -0.0625,-0.44913 0.77125,-0.13783 2.02756,-0.0869 2.5016,0.1014 0.23953,0.0951 0.27221,0.13931 0.15245,0.20599 -0.18047,0.10047 -2.0092,0.20049 -2.59158,0.14174 z"
       id="path16" />
    <path
       style="fill:#000080;stroke-width:0.10163"
       d="m 219.85207,432.21233 c -0.44988,-0.0682 -0.32371,-0.2085 0.30489,-0.33914 0.58941,-0.1225 2.78637,-0.0814 3.25218,0.0609 0.68996,0.21071 -0.18164,0.35735 -1.99598,0.33579 -0.70488,-0.008 -1.40737,-0.0343 -1.56109,-0.0576 z"
       id="path17" />
    <path
       style="fill:#000080;stroke-width:0.10163"
       d="m 239.82439,430.28371 c 0.0989,-0.0258 0.23608,-0.0241 0.30489,0.004 0.0688,0.0278 -0.0121,0.0489 -0.17979,0.0469 -0.16769,-0.002 -0.22398,-0.0249 -0.1251,-0.0506 z"
       id="path18" />
    <path
       style="fill:#000080;stroke-width:0.10163"
       d="m 238.88237,430.25447 -3.60788,-0.0528 7.72392,-0.2855 c 25.16427,-0.93016 29.01568,-1.33632 44.97147,-4.74254 1.87254,-0.39975 3.48465,-0.7499 3.58247,-0.77811 0.15009,-0.0433 0.17786,0.0181 0.17786,0.39318 v 0.44448 l -1.54987,0.37416 c -6.64342,1.60383 -14.67913,3.1188 -20.30068,3.82726 -6.14329,0.77422 -16.10434,1.03768 -30.99729,0.81985 z"
       id="path19" />
    <path
       style="fill:#000080;stroke-width:0.10163"
       d="m 250.6121,437.06182 c -1.41255,-0.0755 -1.87157,-0.18474 -1.87157,-0.44523 0,-0.36092 0.36164,-0.47172 2.04253,-0.62576 2.68614,-0.24618 6.67202,-0.6433 9.18763,-0.91538 9.54082,-1.03192 16.92897,-2.39545 16.91991,-3.1227 -0.004,-0.35051 -0.14973,-0.39114 -1.02377,-0.28611 -1.61501,0.19407 -12.53819,0.63225 -15.13391,0.6071 -0.95363,-0.009 -0.72125,-0.0458 2.18505,-0.34404 9.85107,-1.01078 18.68314,-2.50771 27.25479,-4.61937 l 1.55745,-0.38368 v 2.50754 2.50753 l -2.51536,0.57787 c -13.23426,3.04043 -22.70391,4.25586 -35.69769,4.58181 -0.81051,0.0203 -2.11778,0.003 -2.90506,-0.0396 z m 31.94805,-5.69848 c 1.09526,-0.38181 -0.44832,-1.32145 -1.67036,-1.01682 -0.66007,0.16455 -0.94872,0.36599 -0.94872,0.66209 0,0.17288 0.0809,0.2728 0.27949,0.34534 0.37777,0.13797 1.95261,0.1443 2.33959,0.009 z"
       id="path20" />
    <path
       style="fill:#000080;stroke-width:0.10163"
       d="m 250.01091,437.36406 c -1.21309,-0.10824 -2.38799,-0.3554 -2.65351,-0.55821 -0.28986,-0.22139 -0.15378,-0.29077 1.43394,-0.73105 0.19497,-0.0541 0.19601,-0.0482 0.0254,0.14299 -0.2698,0.30243 -0.22639,0.62622 0.10163,0.75809 0.41371,0.16632 3.4747,0.24744 6.47894,0.17169 4.49103,-0.11323 10.77202,-0.58221 15.54946,-1.16104 4.35992,-0.52823 11.93939,-1.90882 17.56279,-3.19902 1.46392,-0.33588 2.78744,-0.63777 2.94115,-0.67087 0.43194,-0.093 0.33896,0.1451 -0.10163,0.26027 -0.713,0.18638 -3.01819,0.71113 -4.90367,1.11625 -9.04537,1.94354 -17.36134,3.15594 -25.56006,3.72644 -2.64065,0.18375 -9.42423,0.27387 -10.87445,0.14446 z"
       id="path21" />
    <path
       style="fill:#000080;stroke-width:0.10163"
       d="m 241.27069,432.84069 c 16.72484,-0.71284 23.6757,-1.2249 31.0481,-2.28729 1.14588,-0.16513 2.17108,-0.30038 2.27822,-0.30056 1.51222,-0.003 -7.51671,1.17901 -12.84779,1.68134 -1.59305,0.1501 -2.93991,0.31334 -2.99301,0.36274 -0.2356,0.2192 10.71741,-0.0815 15.74764,-0.4323 2.24378,-0.15648 2.23586,-0.15645 2.23586,-0.0107 0,0.0907 -0.2805,0.14029 -0.96548,0.17077 -0.53102,0.0236 -1.60577,0.0905 -2.38832,0.1486 -2.68371,0.19925 -8.82885,0.41566 -17.63288,0.62097 -5.70159,0.13296 -21.00457,0.40908 -21.74892,0.39243 -0.30743,-0.007 2.96253,-0.1626 7.26658,-0.34604 z"
       id="path22" />
    <path
       style="fill:#000080;stroke-width:0.00898295"
       d="m 275.48454,435.43615 v -0.1061 l 0.5547,-0.0922 c 3.90916,-0.65001 8.40248,-1.52536 11.96753,-2.33142 0.20998,-0.0475 0.83146,-0.18923 1.38107,-0.31501 1.28325,-0.29367 1.97042,-0.44981 2.07611,-0.47172 0.1423,-0.0295 0.26176,-0.0185 0.26176,0.0241 0,0.0502 -0.0953,0.12439 -0.2291,0.17833 -0.17198,0.0693 -1.568,0.3987 -3.57967,0.84457 -4.13861,0.91729 -8.18833,1.69576 -11.96079,2.29921 -0.23221,0.0371 -0.43332,0.0695 -0.4469,0.072 l -0.0247,0.004 z"
       id="path23" />
    <path
       style="fill:#000080;stroke-width:0.00898295"
       d="m 275.48454,435.43709 v -0.10705 l 0.47385,-0.0787 c 3.55286,-0.59021 7.54323,-1.35597 10.95695,-2.10264 0.70852,-0.15497 1.15728,-0.25635 2.84311,-0.64229 0.9315,-0.21325 1.59667,-0.36406 1.7055,-0.38668 0.1422,-0.0295 0.26176,-0.0186 0.26176,0.024 0,0.0498 -0.10054,0.12836 -0.22873,0.17868 -0.32603,0.128 -4.26845,1.01501 -7.04745,1.58562 -2.94905,0.60552 -6.32261,1.22163 -8.82575,1.61183 -0.0494,0.008 -0.10095,0.0163 -0.11453,0.0191 l -0.0247,0.005 z"
       id="path24" />
    <path
       style="fill:#000080;stroke-width:0.00898295"
       d="m 275.48454,435.57486 c 0,-0.0165 0.006,-0.023 0.0247,-0.0268 0.0136,-0.003 0.26522,-0.0437 0.55919,-0.0909 3.42897,-0.5508 7.16379,-1.26068 10.86936,-2.06594 1.79498,-0.39007 4.04505,-0.90585 4.43309,-1.01618 0.14028,-0.0399 0.27818,-0.10763 0.32707,-0.16067 0.0412,-0.0447 0.0464,-0.0736 0.0178,-0.0995 -0.0257,-0.0233 -0.13321,-0.0277 -0.22815,-0.009 -0.0838,0.0162 -0.7248,0.16163 -2.33556,0.53003 -1.546,0.35358 -2.25532,0.51114 -3.29707,0.73239 -2.77948,0.59032 -5.77981,1.16753 -8.61881,1.65811 -0.49185,0.085 -1.72709,0.29211 -1.74213,0.29211 -0.005,0 -0.01,-0.006 -0.01,-0.0135 0,-0.007 0.003,-0.0135 0.007,-0.0135 0.016,0 1.51487,-0.25127 2.03461,-0.34109 5.08609,-0.87892 10.10314,-1.93527 15.02186,-3.16286 0.37549,-0.0937 0.68978,-0.17261 0.69843,-0.17533 0.0146,-0.005 0.0157,0.008 0.0157,0.17324 v 0.17819 l -0.44241,0.10993 c -4.79828,1.19232 -9.66512,2.21635 -14.5681,3.06525 -0.78557,0.13602 -2.72685,0.45809 -2.7611,0.45809 -0.003,0 -0.006,-0.01 -0.006,-0.0217 z"
       id="path25" />
    <path
       style="fill:#000080;stroke-width:0.00898295"
       d="m 280.00374,431.16162 c -0.0411,-0.0499 -0.0547,-0.0851 -0.0547,-0.14193 0,-0.0726 0.0385,-0.14222 0.12992,-0.23451 0.20654,-0.2086 0.59053,-0.37165 1.03786,-0.44069 0.1438,-0.0222 0.45806,-0.0222 0.60186,0 0.44759,0.0691 0.83234,0.2325 1.03753,0.44069 0.0395,0.0401 0.0795,0.0867 0.0889,0.10351 0.0202,0.0362 0.0293,0.0372 -0.10559,-0.0121 -0.18509,-0.0677 -0.44579,-0.12328 -0.72585,-0.15478 -0.16988,-0.0191 -0.6743,-0.022 -0.83399,-0.005 -0.39544,0.0426 -0.71251,0.12028 -0.93844,0.2299 -0.0545,0.0264 -0.1164,0.0609 -0.13756,0.0765 -0.064,0.0473 -0.0894,0.10779 -0.0645,0.15421 0.0158,0.0296 -0.006,0.0197 -0.0355,-0.016 z"
       id="path26" />
    <path
       style="fill:#000080;stroke-width:0.00898295"
       d="m 280.97312,431.44639 c -0.14893,-0.009 -0.34761,-0.036 -0.48507,-0.067 -0.1031,-0.0232 -0.27353,-0.0756 -0.26708,-0.082 0.002,-0.002 0.044,0.006 0.0929,0.0182 0.15918,0.0398 0.34185,0.0652 0.63232,0.0876 0.15875,0.0123 0.99681,0.0165 1.17227,0.006 0.11715,-0.007 0.0775,0.003 -0.0981,0.0246 -0.13668,0.0169 -0.82858,0.0253 -1.04724,0.0127 z"
       id="path27" />
    <path
       style="fill:#000080;stroke-width:0.00898295"
       d="m 275.48454,433.94047 v -1.34172 l 0.0843,-0.0239 c 0.23226,-0.0659 0.51864,-0.16229 0.71069,-0.23918 0.30327,-0.12141 0.48412,-0.23389 0.52667,-0.32754 0.0415,-0.0915 -0.006,-0.28299 -0.0878,-0.35493 -0.0326,-0.0286 -0.0732,-0.0365 -0.20085,-0.0388 -0.0668,-10e-4 -0.082,0.002 -0.12159,0.0223 -0.0691,0.0363 -0.25938,0.0651 -0.69988,0.10593 -0.10844,0.0101 -0.2004,0.0183 -0.20436,0.0183 -0.004,0 -0.007,-0.33937 -0.007,-0.75416 v -0.75416 l 0.0292,-0.005 c 0.0161,-0.003 0.23737,-0.0395 0.49181,-0.0816 4.82391,-0.79907 9.72922,-1.80998 14.69162,-3.02773 0.72988,-0.17911 2.50453,-0.62923 2.55075,-0.64697 0.0125,-0.005 0.0139,0.24975 0.0139,2.55094 v 2.55627 l -0.0337,0.009 c -0.0964,0.0256 -1.41932,0.3538 -1.77638,0.44063 -2.2688,0.55175 -4.54745,1.06645 -6.78212,1.53193 -0.44992,0.0937 -1.54233,0.31727 -1.63939,0.33548 -0.0272,0.005 -0.26567,0.0521 -0.52999,0.10447 -2.03894,0.40386 -4.15814,0.78906 -6.29832,1.1448 -0.38854,0.0646 -0.7089,0.11743 -0.7119,0.11743 -0.003,0 -0.005,-0.60378 -0.005,-1.34173 z m 6.36442,-2.48534 c 0.44858,-0.0268 0.81241,-0.12577 0.96062,-0.26122 0.0647,-0.0591 0.0867,-0.10156 0.0877,-0.16899 0.004,-0.2478 -0.46014,-0.54921 -1.01676,-0.66097 -0.17844,-0.0358 -0.26721,-0.0443 -0.46271,-0.0443 -0.19593,0 -0.2842,0.008 -0.46425,0.0446 -0.46657,0.0937 -0.88564,0.32882 -0.99226,0.55672 -0.0263,0.0562 -0.0282,0.13648 -0.004,0.18868 0.0218,0.0479 0.10134,0.11925 0.17748,0.15912 0.18108,0.0948 0.51659,0.16877 0.84332,0.18591 0.20157,0.0106 0.69782,0.0108 0.87134,4.4e-4 z"
       id="path28" />
    <path
       style="fill:#000080;stroke-width:0.0508152"
       d="m 274.78333,430.27792 c 0,-0.0279 -0.0514,-0.0532 -0.11434,-0.056 -0.0629,-0.003 0.46878,-0.10298 1.18146,-0.22247 4.02663,-0.67507 8.32881,-1.54924 13.41522,-2.72588 17.21246,-3.98176 33.90255,-10.39663 49.92596,-19.18915 2.09949,-1.15206 5.67674,-3.21625 7.12683,-4.11242 0.41344,-0.25552 0.52086,-0.3032 0.52086,-0.23124 0,0.093 -0.75227,0.55606 -3.43003,2.11156 -15.01231,8.72056 -31.85464,15.70991 -48.75721,20.23361 -6.00608,1.60744 -11.96877,2.90941 -18.14103,3.96118 -1.85413,0.31594 -1.72772,0.29905 -1.72772,0.23085 z"
       id="path29" />
    <path
       style="fill:#000080;stroke-width:0.0508152"
       d="m 291.75561,424.84252 c 0,-0.33676 -0.0153,-0.41743 -0.0844,-0.44395 -0.0471,-0.0181 0.39708,-0.14063 1.0036,-0.27695 2.33367,-0.5245 4.01691,-0.93015 4.74674,-1.14395 0.9865,-0.28898 1.07983,-0.27643 0.58438,0.0786 -0.84052,0.60231 -2.06043,1.05639 -4.92908,1.83473 -0.62884,0.17062 -1.18336,0.3221 -1.23227,0.33663 -0.0795,0.0236 -0.0889,-0.017 -0.0889,-0.38512 z"
       id="path30" />
    <path
       style="fill:#000080;stroke-width:0.0508152"
       d="m 293.28016,431.7821 9e-5,-0.15758 0.77484,-0.19744 c 17.90013,-4.56119 35.7474,-11.84271 51.8116,-21.13864 0.51312,-0.29693 0.94325,-0.53987 0.95585,-0.53987 0.0126,0 0.0158,0.0858 0.007,0.19055 l -0.0158,0.19056 -1.65149,0.944 c -16.03059,9.16313 -32.95961,16.00396 -51.20905,20.69301 l -0.6733,0.173 z"
       id="path31" />
    <path
       style="fill:#000080;stroke-width:0.203261"
       d="m 306.21255,408.30206 c 0,-0.28695 2.29878,-1.24879 3.31543,-1.38721 0.81782,-0.11134 0.83537,-0.10244 0.44489,0.22574 -0.93991,0.78995 -3.76032,1.66111 -3.76032,1.16147 z"
       id="path32" />
    <path
       style="fill:#000080;stroke-width:0.203261"
       d="m 320.44081,413.50396 c 2.97895,-1.82293 6.39571,-3.64938 6.46093,-3.45372 0.0425,0.12754 0.27547,0.23646 0.51769,0.24205 0.49681,0.0115 -1.58483,1.12072 -4.99524,2.66185 -2.29648,1.03775 -3.18179,1.28317 -1.98338,0.54982 z"
       id="path33" />
    <path
       style="fill:#000080;stroke-width:0.203261"
       d=""
       id="path34" />
    <path
       style="fill:#000080;stroke-width:0.10163"
       d="m 356.92431,380.22426 c 4.62087,-3.93592 9.30594,-8.20558 15.7513,-14.35464 5.14348,-4.90704 8.8138,-8.09522 9.48029,-8.23494 0.12577,-0.0264 0.34094,-0.0712 0.47817,-0.0996 0.39028,-0.0807 0.78946,-0.68673 0.84703,-1.28589 l 0.0496,-0.51589 -0.3952,0.0464 c -0.21736,0.0255 -0.48431,0.085 -0.59322,0.13226 -0.4065,0.17629 0.30424,-0.61786 3.09448,-3.4576 1.53782,-1.56511 3.22655,-3.36004 3.75273,-3.98873 0.52618,-0.6287 0.97381,-1.12596 0.99474,-1.10503 0.0209,0.0209 -0.36412,0.5898 -0.85565,1.26416 -0.49154,0.67436 -1.15243,1.64169 -1.46865,2.14963 -0.31622,0.50794 -0.59062,0.87856 -0.60978,0.82361 -0.15649,-0.4488 -3.04907,2.3747 -3.68137,3.59344 -0.18423,0.35511 -0.13969,0.46531 0.15672,0.3878 0.2668,-0.0698 2.26974,-1.9875 2.79453,-2.67565 0.20786,-0.27256 0.39885,-0.47464 0.42443,-0.44906 0.10868,0.10868 -0.60284,0.98663 -1.80827,2.23125 -0.82332,0.85008 -1.4423,1.5918 -1.70785,2.04648 -0.4369,0.74807 -0.67882,0.93159 -1.52191,1.15449 -0.27341,0.0723 -0.47748,0.20126 -0.55897,0.35329 -0.0706,0.1317 -0.37989,0.43379 -0.68732,0.67132 -0.76056,0.58761 -5.70068,5.54882 -6.49855,6.52629 -0.53398,0.65417 -0.69296,0.78764 -0.93819,0.78764 -0.46574,0 -1.01831,0.3417 -1.64206,1.01542 -0.78777,0.85089 -0.76947,1.15428 0.0523,0.86804 0.24127,-0.084 0.47747,-0.15345 0.52488,-0.15427 0.0474,-8.1e-4 -0.32161,0.31371 -0.82006,0.69893 -0.49844,0.38522 -1.61197,1.38129 -2.47451,2.21349 -2.54354,2.45405 -5.44106,4.90452 -7.86935,6.6552 -1.22826,0.88551 -4.60035,3.13488 -4.69836,3.13405 -0.043,-3.6e-4 0.14957,-0.19473 0.42805,-0.43193 z"
       id="path46" />
    <path
       style="fill:#000080;stroke-width:0.10163"
       d="m 327.19923,410.09359 c 0,-0.0886 1.33347,-0.94846 3.25218,-2.09706 2.57417,-1.54098 3.78296,-2.35892 4.33747,-2.93498 0.33135,-0.34422 0.53538,-0.46413 0.90825,-0.53379 0.56616,-0.10577 0.80321,-0.29388 0.95679,-0.75924 0.21519,-0.65202 2.16079,-2.11624 8.0194,-6.03524 7.13224,-4.77097 11.78252,-8.22515 17.43597,-12.95127 5.65241,-4.72525 10.41405,-9.15081 16.26231,-15.1145 6.09419,-6.21447 12.92513,-14.33945 13.89057,-16.52199 0.24927,-0.56351 0.18375,-0.9452 -0.16225,-0.9452 -0.54487,0 -1.74445,0.98192 -6.52846,5.34386 -4.80844,4.38423 -7.91713,7.02904 -10.14858,8.6342 -1.18888,0.85521 -3.91556,2.11845 -4.06182,1.88179 -0.08,-0.12944 0.70053,-1.05538 1.15532,-1.37055 0.27681,-0.19184 0.60058,-0.30489 1.0121,-0.35341 0.69482,-0.0819 0.99754,-0.25937 2.31596,-1.35754 1.27585,-1.0627 2.55772,-2.293 3.67796,-3.52998 1.2722,-1.40476 1.82572,-2.16751 1.96004,-2.70091 0.13914,-0.5526 0.33849,-0.73131 0.94139,-0.84394 0.58682,-0.10963 0.84842,-0.34436 1.35142,-1.21263 0.24648,-0.42548 0.84244,-1.12891 1.63506,-1.92994 1.32315,-1.33719 1.77651,-1.91342 1.99694,-2.53821 0.3059,-0.86701 1.25355,-2.25555 4.38523,-6.42545 2.59766,-3.45886 4.36536,-5.95701 6.40539,-9.05225 8.05485,-12.22124 15.16939,-26.10681 18.85953,-36.80849 l 0.23655,-0.68601 h 4.75156 c 2.61336,0 4.75156,0.0367 4.75156,0.0815 0,0.10487 -1.60143,4.69612 -2.48844,7.13428 -4.74106,13.03186 -9.39368,22.4772 -16.44523,33.3856 -9.68552,14.98305 -21.47225,28.52928 -35.33699,40.61204 -11.13482,9.70372 -24.31018,18.79936 -37.70489,26.02967 -4.04984,2.18606 -7.62229,3.87316 -7.62229,3.59966 z"
       id="path47" />
    <path
       style="fill:#000080;stroke-width:0.10163"
       d="m 373.79935,367.65229 c -0.036,-0.0582 -0.16557,-0.10952 -0.28804,-0.11409 -0.15071,-0.006 -0.0455,-0.0892 0.32549,-0.2585 0.74545,-0.3402 2.03112,-1.23379 3.72649,-2.59005 2.39265,-1.91407 4.04329,-3.35957 8.6188,-7.54767 1.21379,-1.11102 2.22933,-1.9976 2.25676,-1.97016 0.0498,0.0498 -5.3073,5.1351 -7.42629,7.0496 -4.04356,3.65333 -6.95639,5.84642 -7.21321,5.43087 z"
       id="path48" />
  </g>
</svg>
